<?xml version="1.0" encoding="utf-8" standalone="no"?>
<!DOCTYPE svg PUBLIC "-//W3C//DTD SVG 1.1//EN"
  "http://www.w3.org/Graphics/SVG/1.1/DTD/svg11.dtd">
<svg xmlns:xlink="http://www.w3.org/1999/xlink" width="576pt" height="432pt" viewBox="0 0 576 432" xmlns="http://www.w3.org/2000/svg" version="1.1">
 <metadata>
  <rdf:RDF xmlns:dc="http://purl.org/dc/elements/1.1/" xmlns:cc="http://creativecommons.org/ns#" xmlns:rdf="http://www.w3.org/1999/02/22-rdf-syntax-ns#">
   <cc:Work>
    <dc:type rdf:resource="http://purl.org/dc/dcmitype/StillImage"/>
    <dc:date>2025-11-27T04:24:18.047656</dc:date>
    <dc:format>image/svg+xml</dc:format>
    <dc:creator>
     <cc:Agent>
      <dc:title>Matplotlib v3.10.6, https://matplotlib.org/</dc:title>
     </cc:Agent>
    </dc:creator>
   </cc:Work>
  </rdf:RDF>
 </metadata>
 <defs>
  <style type="text/css">*{stroke-linejoin: round; stroke-linecap: butt}</style>
 </defs>
 <g id="figure_1">
  <g id="patch_1">
   <path d="M 0 432 
L 576 432 
L 576 0 
L 0 0 
z
" style="fill: #ffffff"/>
  </g>
  <g id="axes_1">
   <g id="patch_2">
    <path d="M 72 384.48 
L 518.4 384.48 
L 518.4 51.84 
L 72 51.84 
z
" style="fill: #ffffff"/>
   </g>
   <g id="PathCollection_1">
    <defs>
     <path id="m55072a24ed" d="M 0 4.472136 
C 1.186024 4.472136 2.323632 4.000923 3.162278 3.162278 
C 4.000923 2.323632 4.472136 1.186024 4.472136 0 
C 4.472136 -1.186024 4.000923 -2.323632 3.162278 -3.162278 
C 2.323632 -4.000923 1.186024 -4.472136 0 -4.472136 
C -1.186024 -4.472136 -2.323632 -4.000923 -3.162278 -3.162278 
C -4.000923 -2.323632 -4.472136 -1.186024 -4.472136 0 
C -4.472136 1.186024 -4.000923 2.323632 -3.162278 3.162278 
C -2.323632 4.000923 -1.186024 4.472136 0 4.472136 
z
" style="stroke: #1f77b4"/>
    </defs>
    <g clip-path="url(#p5d43aa48a1)">
     <use xlink:href="#m55072a24ed" x="92.295197" y="369.242004" style="fill: #1f77b4; stroke: #1f77b4"/>
    </g>
   </g>
   <g id="PathCollection_2">
    <defs>
     <path id="m9263da1d1f" d="M -4.472136 4.472136 
L 4.472136 -4.472136 
M -4.472136 -4.472136 
L 4.472136 4.472136 
" style="stroke: #ff7f0e; stroke-width: 1.5"/>
    </defs>
    <g clip-path="url(#p5d43aa48a1)">
     <use xlink:href="#m9263da1d1f" x="367.317177" y="207.47095" style="fill: #ff7f0e; stroke: #ff7f0e; stroke-width: 1.5"/>
    </g>
   </g>
   <g id="matplotlib.axis_1">
    <g id="xtick_1">
     <g id="line2d_1">
      <path d="M 93.072838 384.48 
L 93.072838 51.84 
" clip-path="url(#p5d43aa48a1)" style="fill: none; stroke-dasharray: 2.96,1.28; stroke-dashoffset: 0; stroke: #b0b0b0; stroke-opacity: 0.6; stroke-width: 0.8"/>
     </g>
     <g id="line2d_2">
      <defs>
       <path id="m2a7b93a720" d="M 0 0 
L 0 3.5 
" style="stroke: #000000; stroke-width: 0.8"/>
      </defs>
      <g>
       <use xlink:href="#m2a7b93a720" x="93.072838" y="384.48" style="stroke: #000000; stroke-width: 0.8"/>
      </g>
     </g>
     <g id="text_1">
      <!-- −1.5 -->
      <g transform="translate(80.931432 399.078438) scale(0.1 -0.1)">
       <defs>
        <path id="DejaVuSans-2212" d="M 678 2272 
L 4684 2272 
L 4684 1741 
L 678 1741 
L 678 2272 
z
" transform="scale(0.015625)"/>
        <path id="DejaVuSans-31" d="M 794 531 
L 1825 531 
L 1825 4091 
L 703 3866 
L 703 4441 
L 1819 4666 
L 2450 4666 
L 2450 531 
L 3481 531 
L 3481 0 
L 794 0 
L 794 531 
z
" transform="scale(0.015625)"/>
        <path id="DejaVuSans-2e" d="M 684 794 
L 1344 794 
L 1344 0 
L 684 0 
L 684 794 
z
" transform="scale(0.015625)"/>
        <path id="DejaVuSans-35" d="M 691 4666 
L 3169 4666 
L 3169 4134 
L 1269 4134 
L 1269 2991 
Q 1406 3038 1543 3061 
Q 1681 3084 1819 3084 
Q 2600 3084 3056 2656 
Q 3513 2228 3513 1497 
Q 3513 744 3044 326 
Q 2575 -91 1722 -91 
Q 1428 -91 1123 -41 
Q 819 9 494 109 
L 494 744 
Q 775 591 1075 516 
Q 1375 441 1709 441 
Q 2250 441 2565 725 
Q 2881 1009 2881 1497 
Q 2881 1984 2565 2268 
Q 2250 2553 1709 2553 
Q 1456 2553 1204 2497 
Q 953 2441 691 2322 
L 691 4666 
z
" transform="scale(0.015625)"/>
       </defs>
       <use xlink:href="#DejaVuSans-2212"/>
       <use xlink:href="#DejaVuSans-31" transform="translate(83.789062 0)"/>
       <use xlink:href="#DejaVuSans-2e" transform="translate(147.412109 0)"/>
       <use xlink:href="#DejaVuSans-35" transform="translate(179.199219 0)"/>
      </g>
     </g>
    </g>
    <g id="xtick_2">
     <g id="line2d_3">
      <path d="M 157.655905 384.48 
L 157.655905 51.84 
" clip-path="url(#p5d43aa48a1)" style="fill: none; stroke-dasharray: 2.96,1.28; stroke-dashoffset: 0; stroke: #b0b0b0; stroke-opacity: 0.6; stroke-width: 0.8"/>
     </g>
     <g id="line2d_4">
      <g>
       <use xlink:href="#m2a7b93a720" x="157.655905" y="384.48" style="stroke: #000000; stroke-width: 0.8"/>
      </g>
     </g>
     <g id="text_2">
      <!-- −1.0 -->
      <g transform="translate(145.514499 399.078438) scale(0.1 -0.1)">
       <defs>
        <path id="DejaVuSans-30" d="M 2034 4250 
Q 1547 4250 1301 3770 
Q 1056 3291 1056 2328 
Q 1056 1369 1301 889 
Q 1547 409 2034 409 
Q 2525 409 2770 889 
Q 3016 1369 3016 2328 
Q 3016 3291 2770 3770 
Q 2525 4250 2034 4250 
z
M 2034 4750 
Q 2819 4750 3233 4129 
Q 3647 3509 3647 2328 
Q 3647 1150 3233 529 
Q 2819 -91 2034 -91 
Q 1250 -91 836 529 
Q 422 1150 422 2328 
Q 422 3509 836 4129 
Q 1250 4750 2034 4750 
z
" transform="scale(0.015625)"/>
       </defs>
       <use xlink:href="#DejaVuSans-2212"/>
       <use xlink:href="#DejaVuSans-31" transform="translate(83.789062 0)"/>
       <use xlink:href="#DejaVuSans-2e" transform="translate(147.412109 0)"/>
       <use xlink:href="#DejaVuSans-30" transform="translate(179.199219 0)"/>
      </g>
     </g>
    </g>
    <g id="xtick_3">
     <g id="line2d_5">
      <path d="M 222.238973 384.48 
L 222.238973 51.84 
" clip-path="url(#p5d43aa48a1)" style="fill: none; stroke-dasharray: 2.96,1.28; stroke-dashoffset: 0; stroke: #b0b0b0; stroke-opacity: 0.6; stroke-width: 0.8"/>
     </g>
     <g id="line2d_6">
      <g>
       <use xlink:href="#m2a7b93a720" x="222.238973" y="384.48" style="stroke: #000000; stroke-width: 0.8"/>
      </g>
     </g>
     <g id="text_3">
      <!-- −0.5 -->
      <g transform="translate(210.097566 399.078438) scale(0.1 -0.1)">
       <use xlink:href="#DejaVuSans-2212"/>
       <use xlink:href="#DejaVuSans-30" transform="translate(83.789062 0)"/>
       <use xlink:href="#DejaVuSans-2e" transform="translate(147.412109 0)"/>
       <use xlink:href="#DejaVuSans-35" transform="translate(179.199219 0)"/>
      </g>
     </g>
    </g>
    <g id="xtick_4">
     <g id="line2d_7">
      <path d="M 286.82204 384.48 
L 286.82204 51.84 
" clip-path="url(#p5d43aa48a1)" style="fill: none; stroke-dasharray: 2.96,1.28; stroke-dashoffset: 0; stroke: #b0b0b0; stroke-opacity: 0.6; stroke-width: 0.8"/>
     </g>
     <g id="line2d_8">
      <g>
       <use xlink:href="#m2a7b93a720" x="286.82204" y="384.48" style="stroke: #000000; stroke-width: 0.8"/>
      </g>
     </g>
     <g id="text_4">
      <!-- 0.0 -->
      <g transform="translate(278.870477 399.078438) scale(0.1 -0.1)">
       <use xlink:href="#DejaVuSans-30"/>
       <use xlink:href="#DejaVuSans-2e" transform="translate(63.623047 0)"/>
       <use xlink:href="#DejaVuSans-30" transform="translate(95.410156 0)"/>
      </g>
     </g>
    </g>
    <g id="xtick_5">
     <g id="line2d_9">
      <path d="M 351.405107 384.48 
L 351.405107 51.84 
" clip-path="url(#p5d43aa48a1)" style="fill: none; stroke-dasharray: 2.96,1.28; stroke-dashoffset: 0; stroke: #b0b0b0; stroke-opacity: 0.6; stroke-width: 0.8"/>
     </g>
     <g id="line2d_10">
      <g>
       <use xlink:href="#m2a7b93a720" x="351.405107" y="384.48" style="stroke: #000000; stroke-width: 0.8"/>
      </g>
     </g>
     <g id="text_5">
      <!-- 0.5 -->
      <g transform="translate(343.453544 399.078438) scale(0.1 -0.1)">
       <use xlink:href="#DejaVuSans-30"/>
       <use xlink:href="#DejaVuSans-2e" transform="translate(63.623047 0)"/>
       <use xlink:href="#DejaVuSans-35" transform="translate(95.410156 0)"/>
      </g>
     </g>
    </g>
    <g id="xtick_6">
     <g id="line2d_11">
      <path d="M 415.988174 384.48 
L 415.988174 51.84 
" clip-path="url(#p5d43aa48a1)" style="fill: none; stroke-dasharray: 2.96,1.28; stroke-dashoffset: 0; stroke: #b0b0b0; stroke-opacity: 0.6; stroke-width: 0.8"/>
     </g>
     <g id="line2d_12">
      <g>
       <use xlink:href="#m2a7b93a720" x="415.988174" y="384.48" style="stroke: #000000; stroke-width: 0.8"/>
      </g>
     </g>
     <g id="text_6">
      <!-- 1.0 -->
      <g transform="translate(408.036611 399.078438) scale(0.1 -0.1)">
       <use xlink:href="#DejaVuSans-31"/>
       <use xlink:href="#DejaVuSans-2e" transform="translate(63.623047 0)"/>
       <use xlink:href="#DejaVuSans-30" transform="translate(95.410156 0)"/>
      </g>
     </g>
    </g>
    <g id="xtick_7">
     <g id="line2d_13">
      <path d="M 480.571241 384.48 
L 480.571241 51.84 
" clip-path="url(#p5d43aa48a1)" style="fill: none; stroke-dasharray: 2.96,1.28; stroke-dashoffset: 0; stroke: #b0b0b0; stroke-opacity: 0.6; stroke-width: 0.8"/>
     </g>
     <g id="line2d_14">
      <g>
       <use xlink:href="#m2a7b93a720" x="480.571241" y="384.48" style="stroke: #000000; stroke-width: 0.8"/>
      </g>
     </g>
     <g id="text_7">
      <!-- 1.5 -->
      <g transform="translate(472.619678 399.078438) scale(0.1 -0.1)">
       <use xlink:href="#DejaVuSans-31"/>
       <use xlink:href="#DejaVuSans-2e" transform="translate(63.623047 0)"/>
       <use xlink:href="#DejaVuSans-35" transform="translate(95.410156 0)"/>
      </g>
     </g>
    </g>
    <g id="text_8">
     <!-- x w (m) -->
     <g transform="translate(272.401875 414.27625) scale(0.12 -0.12)">
      <defs>
       <path id="DejaVuSans-78" d="M 3513 3500 
L 2247 1797 
L 3578 0 
L 2900 0 
L 1881 1375 
L 863 0 
L 184 0 
L 1544 1831 
L 300 3500 
L 978 3500 
L 1906 2253 
L 2834 3500 
L 3513 3500 
z
" transform="scale(0.015625)"/>
       <path id="DejaVuSans-20" transform="scale(0.015625)"/>
       <path id="DejaVuSans-77" d="M 269 3500 
L 844 3500 
L 1563 769 
L 2278 3500 
L 2956 3500 
L 3675 769 
L 4391 3500 
L 4966 3500 
L 4050 0 
L 3372 0 
L 2619 2869 
L 1863 0 
L 1184 0 
L 269 3500 
z
" transform="scale(0.015625)"/>
       <path id="DejaVuSans-28" d="M 1984 4856 
Q 1566 4138 1362 3434 
Q 1159 2731 1159 2009 
Q 1159 1288 1364 580 
Q 1569 -128 1984 -844 
L 1484 -844 
Q 1016 -109 783 600 
Q 550 1309 550 2009 
Q 550 2706 781 3412 
Q 1013 4119 1484 4856 
L 1984 4856 
z
" transform="scale(0.015625)"/>
       <path id="DejaVuSans-6d" d="M 3328 2828 
Q 3544 3216 3844 3400 
Q 4144 3584 4550 3584 
Q 5097 3584 5394 3201 
Q 5691 2819 5691 2113 
L 5691 0 
L 5113 0 
L 5113 2094 
Q 5113 2597 4934 2840 
Q 4756 3084 4391 3084 
Q 3944 3084 3684 2787 
Q 3425 2491 3425 1978 
L 3425 0 
L 2847 0 
L 2847 2094 
Q 2847 2600 2669 2842 
Q 2491 3084 2119 3084 
Q 1678 3084 1418 2786 
Q 1159 2488 1159 1978 
L 1159 0 
L 581 0 
L 581 3500 
L 1159 3500 
L 1159 2956 
Q 1356 3278 1631 3431 
Q 1906 3584 2284 3584 
Q 2666 3584 2933 3390 
Q 3200 3197 3328 2828 
z
" transform="scale(0.015625)"/>
       <path id="DejaVuSans-29" d="M 513 4856 
L 1013 4856 
Q 1481 4119 1714 3412 
Q 1947 2706 1947 2009 
Q 1947 1309 1714 600 
Q 1481 -109 1013 -844 
L 513 -844 
Q 928 -128 1133 580 
Q 1338 1288 1338 2009 
Q 1338 2731 1133 3434 
Q 928 4138 513 4856 
z
" transform="scale(0.015625)"/>
      </defs>
      <use xlink:href="#DejaVuSans-78"/>
      <use xlink:href="#DejaVuSans-20" transform="translate(59.179688 0)"/>
      <use xlink:href="#DejaVuSans-77" transform="translate(90.966797 0)"/>
      <use xlink:href="#DejaVuSans-20" transform="translate(172.753906 0)"/>
      <use xlink:href="#DejaVuSans-28" transform="translate(204.541016 0)"/>
      <use xlink:href="#DejaVuSans-6d" transform="translate(243.554688 0)"/>
      <use xlink:href="#DejaVuSans-29" transform="translate(340.966797 0)"/>
     </g>
    </g>
   </g>
   <g id="matplotlib.axis_2">
    <g id="ytick_1">
     <g id="line2d_15">
      <path d="M 72 352.985542 
L 518.4 352.985542 
" clip-path="url(#p5d43aa48a1)" style="fill: none; stroke-dasharray: 2.96,1.28; stroke-dashoffset: 0; stroke: #b0b0b0; stroke-opacity: 0.6; stroke-width: 0.8"/>
     </g>
     <g id="line2d_16">
      <defs>
       <path id="mbe9fdcd159" d="M 0 0 
L -3.5 0 
" style="stroke: #000000; stroke-width: 0.8"/>
      </defs>
      <g>
       <use xlink:href="#mbe9fdcd159" x="72" y="352.985542" style="stroke: #000000; stroke-width: 0.8"/>
      </g>
     </g>
     <g id="text_9">
      <!-- −1.6 -->
      <g transform="translate(40.717187 356.78476) scale(0.1 -0.1)">
       <defs>
        <path id="DejaVuSans-36" d="M 2113 2584 
Q 1688 2584 1439 2293 
Q 1191 2003 1191 1497 
Q 1191 994 1439 701 
Q 1688 409 2113 409 
Q 2538 409 2786 701 
Q 3034 994 3034 1497 
Q 3034 2003 2786 2293 
Q 2538 2584 2113 2584 
z
M 3366 4563 
L 3366 3988 
Q 3128 4100 2886 4159 
Q 2644 4219 2406 4219 
Q 1781 4219 1451 3797 
Q 1122 3375 1075 2522 
Q 1259 2794 1537 2939 
Q 1816 3084 2150 3084 
Q 2853 3084 3261 2657 
Q 3669 2231 3669 1497 
Q 3669 778 3244 343 
Q 2819 -91 2113 -91 
Q 1303 -91 875 529 
Q 447 1150 447 2328 
Q 447 3434 972 4092 
Q 1497 4750 2381 4750 
Q 2619 4750 2861 4703 
Q 3103 4656 3366 4563 
z
" transform="scale(0.015625)"/>
       </defs>
       <use xlink:href="#DejaVuSans-2212"/>
       <use xlink:href="#DejaVuSans-31" transform="translate(83.789062 0)"/>
       <use xlink:href="#DejaVuSans-2e" transform="translate(147.412109 0)"/>
       <use xlink:href="#DejaVuSans-36" transform="translate(179.199219 0)"/>
      </g>
     </g>
    </g>
    <g id="ytick_2">
     <g id="line2d_17">
      <path d="M 72 313.591229 
L 518.4 313.591229 
" clip-path="url(#p5d43aa48a1)" style="fill: none; stroke-dasharray: 2.96,1.28; stroke-dashoffset: 0; stroke: #b0b0b0; stroke-opacity: 0.6; stroke-width: 0.8"/>
     </g>
     <g id="line2d_18">
      <g>
       <use xlink:href="#mbe9fdcd159" x="72" y="313.591229" style="stroke: #000000; stroke-width: 0.8"/>
      </g>
     </g>
     <g id="text_10">
      <!-- −1.4 -->
      <g transform="translate(40.717187 317.390448) scale(0.1 -0.1)">
       <defs>
        <path id="DejaVuSans-34" d="M 2419 4116 
L 825 1625 
L 2419 1625 
L 2419 4116 
z
M 2253 4666 
L 3047 4666 
L 3047 1625 
L 3713 1625 
L 3713 1100 
L 3047 1100 
L 3047 0 
L 2419 0 
L 2419 1100 
L 313 1100 
L 313 1709 
L 2253 4666 
z
" transform="scale(0.015625)"/>
       </defs>
       <use xlink:href="#DejaVuSans-2212"/>
       <use xlink:href="#DejaVuSans-31" transform="translate(83.789062 0)"/>
       <use xlink:href="#DejaVuSans-2e" transform="translate(147.412109 0)"/>
       <use xlink:href="#DejaVuSans-34" transform="translate(179.199219 0)"/>
      </g>
     </g>
    </g>
    <g id="ytick_3">
     <g id="line2d_19">
      <path d="M 72 274.196917 
L 518.4 274.196917 
" clip-path="url(#p5d43aa48a1)" style="fill: none; stroke-dasharray: 2.96,1.28; stroke-dashoffset: 0; stroke: #b0b0b0; stroke-opacity: 0.6; stroke-width: 0.8"/>
     </g>
     <g id="line2d_20">
      <g>
       <use xlink:href="#mbe9fdcd159" x="72" y="274.196917" style="stroke: #000000; stroke-width: 0.8"/>
      </g>
     </g>
     <g id="text_11">
      <!-- −1.2 -->
      <g transform="translate(40.717187 277.996136) scale(0.1 -0.1)">
       <defs>
        <path id="DejaVuSans-32" d="M 1228 531 
L 3431 531 
L 3431 0 
L 469 0 
L 469 531 
Q 828 903 1448 1529 
Q 2069 2156 2228 2338 
Q 2531 2678 2651 2914 
Q 2772 3150 2772 3378 
Q 2772 3750 2511 3984 
Q 2250 4219 1831 4219 
Q 1534 4219 1204 4116 
Q 875 4013 500 3803 
L 500 4441 
Q 881 4594 1212 4672 
Q 1544 4750 1819 4750 
Q 2544 4750 2975 4387 
Q 3406 4025 3406 3419 
Q 3406 3131 3298 2873 
Q 3191 2616 2906 2266 
Q 2828 2175 2409 1742 
Q 1991 1309 1228 531 
z
" transform="scale(0.015625)"/>
       </defs>
       <use xlink:href="#DejaVuSans-2212"/>
       <use xlink:href="#DejaVuSans-31" transform="translate(83.789062 0)"/>
       <use xlink:href="#DejaVuSans-2e" transform="translate(147.412109 0)"/>
       <use xlink:href="#DejaVuSans-32" transform="translate(179.199219 0)"/>
      </g>
     </g>
    </g>
    <g id="ytick_4">
     <g id="line2d_21">
      <path d="M 72 234.802605 
L 518.4 234.802605 
" clip-path="url(#p5d43aa48a1)" style="fill: none; stroke-dasharray: 2.96,1.28; stroke-dashoffset: 0; stroke: #b0b0b0; stroke-opacity: 0.6; stroke-width: 0.8"/>
     </g>
     <g id="line2d_22">
      <g>
       <use xlink:href="#mbe9fdcd159" x="72" y="234.802605" style="stroke: #000000; stroke-width: 0.8"/>
      </g>
     </g>
     <g id="text_12">
      <!-- −1.0 -->
      <g transform="translate(40.717187 238.601824) scale(0.1 -0.1)">
       <use xlink:href="#DejaVuSans-2212"/>
       <use xlink:href="#DejaVuSans-31" transform="translate(83.789062 0)"/>
       <use xlink:href="#DejaVuSans-2e" transform="translate(147.412109 0)"/>
       <use xlink:href="#DejaVuSans-30" transform="translate(179.199219 0)"/>
      </g>
     </g>
    </g>
    <g id="ytick_5">
     <g id="line2d_23">
      <path d="M 72 195.408293 
L 518.4 195.408293 
" clip-path="url(#p5d43aa48a1)" style="fill: none; stroke-dasharray: 2.96,1.28; stroke-dashoffset: 0; stroke: #b0b0b0; stroke-opacity: 0.6; stroke-width: 0.8"/>
     </g>
     <g id="line2d_24">
      <g>
       <use xlink:href="#mbe9fdcd159" x="72" y="195.408293" style="stroke: #000000; stroke-width: 0.8"/>
      </g>
     </g>
     <g id="text_13">
      <!-- −0.8 -->
      <g transform="translate(40.717187 199.207512) scale(0.1 -0.1)">
       <defs>
        <path id="DejaVuSans-38" d="M 2034 2216 
Q 1584 2216 1326 1975 
Q 1069 1734 1069 1313 
Q 1069 891 1326 650 
Q 1584 409 2034 409 
Q 2484 409 2743 651 
Q 3003 894 3003 1313 
Q 3003 1734 2745 1975 
Q 2488 2216 2034 2216 
z
M 1403 2484 
Q 997 2584 770 2862 
Q 544 3141 544 3541 
Q 544 4100 942 4425 
Q 1341 4750 2034 4750 
Q 2731 4750 3128 4425 
Q 3525 4100 3525 3541 
Q 3525 3141 3298 2862 
Q 3072 2584 2669 2484 
Q 3125 2378 3379 2068 
Q 3634 1759 3634 1313 
Q 3634 634 3220 271 
Q 2806 -91 2034 -91 
Q 1263 -91 848 271 
Q 434 634 434 1313 
Q 434 1759 690 2068 
Q 947 2378 1403 2484 
z
M 1172 3481 
Q 1172 3119 1398 2916 
Q 1625 2713 2034 2713 
Q 2441 2713 2670 2916 
Q 2900 3119 2900 3481 
Q 2900 3844 2670 4047 
Q 2441 4250 2034 4250 
Q 1625 4250 1398 4047 
Q 1172 3844 1172 3481 
z
" transform="scale(0.015625)"/>
       </defs>
       <use xlink:href="#DejaVuSans-2212"/>
       <use xlink:href="#DejaVuSans-30" transform="translate(83.789062 0)"/>
       <use xlink:href="#DejaVuSans-2e" transform="translate(147.412109 0)"/>
       <use xlink:href="#DejaVuSans-38" transform="translate(179.199219 0)"/>
      </g>
     </g>
    </g>
    <g id="ytick_6">
     <g id="line2d_25">
      <path d="M 72 156.013981 
L 518.4 156.013981 
" clip-path="url(#p5d43aa48a1)" style="fill: none; stroke-dasharray: 2.96,1.28; stroke-dashoffset: 0; stroke: #b0b0b0; stroke-opacity: 0.6; stroke-width: 0.8"/>
     </g>
     <g id="line2d_26">
      <g>
       <use xlink:href="#mbe9fdcd159" x="72" y="156.013981" style="stroke: #000000; stroke-width: 0.8"/>
      </g>
     </g>
     <g id="text_14">
      <!-- −0.6 -->
      <g transform="translate(40.717187 159.813199) scale(0.1 -0.1)">
       <use xlink:href="#DejaVuSans-2212"/>
       <use xlink:href="#DejaVuSans-30" transform="translate(83.789062 0)"/>
       <use xlink:href="#DejaVuSans-2e" transform="translate(147.412109 0)"/>
       <use xlink:href="#DejaVuSans-36" transform="translate(179.199219 0)"/>
      </g>
     </g>
    </g>
    <g id="ytick_7">
     <g id="line2d_27">
      <path d="M 72 116.619668 
L 518.4 116.619668 
" clip-path="url(#p5d43aa48a1)" style="fill: none; stroke-dasharray: 2.96,1.28; stroke-dashoffset: 0; stroke: #b0b0b0; stroke-opacity: 0.6; stroke-width: 0.8"/>
     </g>
     <g id="line2d_28">
      <g>
       <use xlink:href="#mbe9fdcd159" x="72" y="116.619668" style="stroke: #000000; stroke-width: 0.8"/>
      </g>
     </g>
     <g id="text_15">
      <!-- −0.4 -->
      <g transform="translate(40.717187 120.418887) scale(0.1 -0.1)">
       <use xlink:href="#DejaVuSans-2212"/>
       <use xlink:href="#DejaVuSans-30" transform="translate(83.789062 0)"/>
       <use xlink:href="#DejaVuSans-2e" transform="translate(147.412109 0)"/>
       <use xlink:href="#DejaVuSans-34" transform="translate(179.199219 0)"/>
      </g>
     </g>
    </g>
    <g id="ytick_8">
     <g id="line2d_29">
      <path d="M 72 77.225356 
L 518.4 77.225356 
" clip-path="url(#p5d43aa48a1)" style="fill: none; stroke-dasharray: 2.96,1.28; stroke-dashoffset: 0; stroke: #b0b0b0; stroke-opacity: 0.6; stroke-width: 0.8"/>
     </g>
     <g id="line2d_30">
      <g>
       <use xlink:href="#mbe9fdcd159" x="72" y="77.225356" style="stroke: #000000; stroke-width: 0.8"/>
      </g>
     </g>
     <g id="text_16">
      <!-- −0.2 -->
      <g transform="translate(40.717187 81.024575) scale(0.1 -0.1)">
       <use xlink:href="#DejaVuSans-2212"/>
       <use xlink:href="#DejaVuSans-30" transform="translate(83.789062 0)"/>
       <use xlink:href="#DejaVuSans-2e" transform="translate(147.412109 0)"/>
       <use xlink:href="#DejaVuSans-32" transform="translate(179.199219 0)"/>
      </g>
     </g>
    </g>
    <g id="text_17">
     <!-- y w (m) -->
     <g transform="translate(34.221562 240.958125) rotate(-90) scale(0.12 -0.12)">
      <defs>
       <path id="DejaVuSans-79" d="M 2059 -325 
Q 1816 -950 1584 -1140 
Q 1353 -1331 966 -1331 
L 506 -1331 
L 506 -850 
L 844 -850 
Q 1081 -850 1212 -737 
Q 1344 -625 1503 -206 
L 1606 56 
L 191 3500 
L 800 3500 
L 1894 763 
L 2988 3500 
L 3597 3500 
L 2059 -325 
z
" transform="scale(0.015625)"/>
      </defs>
      <use xlink:href="#DejaVuSans-79"/>
      <use xlink:href="#DejaVuSans-20" transform="translate(59.179688 0)"/>
      <use xlink:href="#DejaVuSans-77" transform="translate(90.966797 0)"/>
      <use xlink:href="#DejaVuSans-20" transform="translate(172.753906 0)"/>
      <use xlink:href="#DejaVuSans-28" transform="translate(204.541016 0)"/>
      <use xlink:href="#DejaVuSans-6d" transform="translate(243.554688 0)"/>
      <use xlink:href="#DejaVuSans-29" transform="translate(340.966797 0)"/>
     </g>
    </g>
   </g>
   <g id="line2d_31">
    <path d="M 92.295197 369.242004 
L 92.290909 369.243277 
L 92.428649 369.248367 
L 96.951167 369.350864 
L 108.562498 369.304112 
L 116.587838 368.94119 
L 126.143395 368.153536 
L 130.035593 367.722031 
L 139.771366 366.338325 
L 143.659245 365.653644 
L 149.479156 364.464654 
L 153.352053 363.555106 
L 159.140246 362.017626 
L 166.81954 359.633777 
L 168.73141 358.980905 
L 174.450184 356.873459 
L 180.123777 354.537505 
L 187.627711 351.077895 
L 193.208271 348.229309 
L 198.736263 345.1614 
L 206.006073 340.720115 
L 213.182115 335.908014 
L 216.730028 333.368413 
L 221.99205 329.389843 
L 228.904864 323.788185 
L 237.379656 316.341588 
L 240.712775 313.235377 
L 248.936985 305.200394 
L 253.786242 300.200206 
L 258.566385 295.073718 
L 266.410845 286.264304 
L 274.106206 277.183006 
L 280.180939 269.776463 
L 283.199044 265.990964 
L 289.331749 258.648162 
L 292.02415 255.064449 
L 294.44019 251.022271 
L 296.588845 246.497039 
L 298.461749 241.664313 
L 300.734905 233.998444 
L 301.883346 228.650424 
L 302.735648 223.164402 
L 303.510779 214.757625 
L 303.702004 206.261848 
L 303.506179 200.586107 
L 303.066847 194.918463 
L 302.015149 186.499373 
L 301.071203 180.9896 
L 299.241907 173.241032 
L 297.409845 167.109056 
L 295.725633 162.804357 
L 294.756579 157.487157 
L 295.139287 149.569375 
L 296.923974 141.232388 
L 299.365717 134.247126 
L 301.157767 129.654004 
L 303.203217 124.985409 
L 306.739693 118.50562 
L 309.400756 114.562121 
L 312.28118 110.942505 
L 315.318044 107.601751 
L 320.096341 103.058522 
L 323.453969 100.329017 
L 326.875464 97.84793 
L 332.125289 94.48742 
L 337.483233 91.515708 
L 342.938225 88.890852 
L 346.620744 87.302696 
L 350.345165 85.833933 
L 359.731601 82.514779 
L 369.17414 79.602918 
L 380.564077 76.453623 
L 391.969796 73.561396 
L 401.502689 71.345826 
L 407.183287 70.084173 
L 412.886766 69.034153 
L 420.515898 67.959611 
L 430.004834 67.069552 
L 435.612865 66.96 
L 439.347871 67.338511 
L 444.931705 68.519743 
L 448.59531 69.566972 
L 454.014497 71.776624 
L 457.561794 73.67043 
L 462.795584 76.948333 
L 466.164723 79.345009 
L 469.426195 82.09751 
L 474.063408 86.908352 
L 478.478227 92.226813 
L 482.548364 97.941089 
L 486.113637 104.443798 
L 490.163676 114.23499 
L 494.362578 127.455536 
L 495.990934 133.013528 
L 497.764076 140.694941 
L 498.109091 148.658278 
L 496.986713 156.705459 
L 495.620883 161.853882 
L 493.794878 166.735025 
L 491.668835 171.356616 
L 486.787514 179.823459 
L 481.035155 187.300948 
L 477.986132 190.655568 
L 471.559761 196.723968 
L 466.531346 200.698267 
L 461.319833 204.259153 
L 457.783357 206.347786 
L 452.393133 209.200496 
L 446.91136 211.614076 
L 443.214274 213.000523 
L 437.640451 214.855808 
L 431.989208 216.329936 
L 426.316838 217.487066 
L 418.717173 218.590246 
L 414.916015 218.906392 
L 409.21187 219.129254 
L 403.510973 218.99518 
L 397.797583 218.575775 
L 394.017481 218.042439 
L 388.378406 216.911721 
L 384.639297 215.91703 
L 379.070442 214.074006 
L 375.387236 212.64324 
L 369.918769 210.195607 
L 364.512733 207.390488 
L 359.186873 204.269873 
L 355.671382 201.988438 
L 350.464522 198.374011 
L 346.352683 195.323614 
L 346.475398 195.645329 
L 348.2935 198.0088 
L 351.094376 203.35643 
L 352.878507 207.707479 
L 353.892398 210.651332 
L 353.400868 210.541877 
L 352.367294 208.283569 
L 351.231482 205.043452 
L 349.880636 200.548501 
L 346.575953 190.237517 
L 343.69524 182.880676 
L 345.455876 187.202014 
L 346.990906 193.126487 
L 347.942099 198.185613 
L 347.829539 201.460968 
L 347.030776 201.40803 
L 346.793159 199.862159 
L 346.773238 198.081824 
L 346.118596 190.472734 
L 346.091834 182.882743 
L 347.199935 174.884583 
L 348.606549 169.805308 
L 350.492994 164.975464 
L 352.696412 160.380511 
L 355.124624 156.036424 
L 357.773254 151.889654 
L 362.005457 146.147336 
L 369.572339 137.488774 
L 374.357831 132.790843 
L 379.326401 128.422214 
L 382.705955 125.717294 
L 386.127498 123.132238 
L 391.296736 119.432415 
L 396.57808 116.06706 
L 401.879267 113.064957 
L 407.295319 110.251616 
L 412.761688 107.792022 
L 416.429413 106.330586 
L 421.995173 104.490815 
L 429.473464 102.614802 
L 433.232802 101.94606 
L 440.801329 101.306519 
L 446.475364 101.253905 
L 452.105272 101.55544 
L 455.831144 102.057865 
L 459.501749 102.738207 
L 463.120714 103.817812 
L 464.944356 104.544997 
L 470.245103 107.286583 
L 475.369649 110.523005 
L 480.118267 114.594964 
L 484.202738 119.054794 
L 485.923896 118.77777 
L 486.925633 119.88618 
L 488.726345 125.13398 
L 490.21331 136.443303 
L 489.992294 144.472906 
L 488.301238 152.301513 
L 486.524381 157.192621 
L 484.404876 161.812843 
L 480.833508 168.27126 
L 478.179434 172.235985 
L 473.835339 177.681026 
L 470.776689 181.008379 
L 467.590377 184.079464 
L 462.658922 188.265286 
L 457.575884 192.041422 
L 450.499009 196.323016 
L 445.098963 199.091912 
L 437.785538 202.218576 
L 434.08438 203.536683 
L 430.357177 204.697621 
L 424.778839 206.151499 
L 421.01872 206.908479 
L 415.33085 207.692768 
L 409.630635 208.117385 
L 402.07683 208.23275 
L 396.401139 207.857697 
L 390.734238 207.02177 
L 385.105162 205.859192 
L 381.362352 204.897216 
L 377.657689 203.745473 
L 372.115411 201.701302 
L 368.4523 200.131111 
L 363.010335 197.509061 
L 357.038955 194.213424 
L 357.531402 194.660353 
L 358.88505 196.096616 
L 361.76211 200.365347 
L 365.016285 206.506896 
L 366.262394 210.06962 
L 364.613785 207.473944 
L 363.502655 204.555367 
L 361.428694 198.048021 
L 359.167518 191.336636 
L 357.509538 187.6123 
L 358.811835 191.291607 
L 360.474226 199.30526 
L 360.815028 203.505324 
L 360.756893 205.751756 
L 360.198022 206.383781 
L 359.879056 206.510733 
L 359.692173 206.202667 
L 359.652873 204.392937 
L 360.044441 193.440685 
L 359.933556 190.071925 
L 359.730232 188.218738 
L 357.754318 181.473693 
L 356.342419 175.473671 
L 355.798856 167.60555 
L 356.868637 159.600511 
L 359.080089 151.939807 
L 360.975189 147.162389 
L 364.425754 140.522559 
L 368.345668 134.487338 
L 372.698607 129.083896 
L 377.366186 124.237646 
L 380.633297 121.29525 
L 385.630297 117.204472 
L 389.019029 114.621473 
L 394.23153 111.07912 
L 399.490383 107.973538 
L 403.070388 106.054543 
L 410.375411 102.782305 
L 415.912423 100.76511 
L 419.626288 99.573641 
L 423.362106 98.544331 
L 430.858639 97.047385 
L 434.632097 96.706789 
L 438.449232 96.532286 
L 444.075981 96.586855 
L 447.807305 97.021158 
L 453.416962 98.189332 
L 458.929081 99.752087 
L 464.286002 102.11499 
L 467.825219 104.125932 
L 472.947982 107.585306 
L 476.122435 110.369335 
L 480.617992 115.495399 
L 489.583384 127.855085 
L 491.014043 131.330859 
L 492.115732 136.695411 
L 492.707933 145.039553 
L 492.084172 153.106432 
L 490.140215 160.645746 
L 488.210052 165.427419 
L 485.959686 169.901293 
L 483.454555 174.080258 
L 479.320171 179.842064 
L 474.823616 184.97162 
L 466.801836 192.340676 
L 463.4068 194.83539 
L 458.141781 198.168996 
L 452.79925 201.060993 
L 449.182243 202.775183 
L 445.514126 204.265607 
L 439.9459 206.177988 
L 434.327895 207.798731 
L 428.646995 209.014529 
L 424.854281 209.617798 
L 419.146022 210.29193 
L 413.437369 210.649579 
L 409.63437 210.711452 
L 405.827772 210.61774 
L 402.031808 210.379961 
L 392.560436 209.040227 
L 386.893711 207.780379 
L 379.400529 205.704834 
L 371.993819 203.068842 
L 368.333231 201.512247 
L 364.701293 199.790586 
L 358.403543 196.341691 
L 358.756534 196.632909 
L 359.639749 197.484868 
L 361.325032 199.539172 
L 363.028505 202.06464 
L 366.388452 208.061769 
L 367.778323 211.599287 
L 367.217295 211.23222 
L 365.482962 207.765239 
L 361.432543 196.789942 
L 358.309873 189.223041 
L 358.390388 189.161757 
L 359.355178 191.302396 
L 360.799542 195.328741 
L 362.009674 200.243321 
L 362.008001 202.97168 
L 360.861265 203.276176 
L 360.134417 200.537882 
L 359.798731 196.697884 
L 359.261965 188.637177 
L 358.940883 186.163673 
L 357.527308 180.512202 
L 356.440013 174.143456 
L 356.724416 166.233065 
L 357.715717 160.944514 
L 361.019267 151.070322 
L 363.229623 146.609698 
L 367.113705 140.348301 
L 371.335774 134.711818 
L 375.931925 129.585481 
L 380.723277 124.935709 
L 384.002275 122.047934 
L 389.03542 117.99961 
L 392.471274 115.554006 
L 399.494594 111.16275 
L 404.835387 108.276793 
L 410.341634 105.841829 
L 415.886795 103.712339 
L 419.594578 102.466403 
L 423.330272 101.397283 
L 430.7911 99.761277 
L 438.36543 99.163289 
L 442.161207 99.170614 
L 447.799828 99.371795 
L 451.538256 99.806327 
L 458.897837 101.559844 
L 462.492477 103.056868 
L 466.031984 104.926967 
L 471.24329 108.295195 
L 476.266258 112.017716 
L 479.376434 114.956726 
L 482.14012 118.032995 
L 483.470462 119.336551 
L 484.152556 119.556493 
L 484.834218 119.646407 
L 486.991214 121.387562 
L 488.896721 127.06578 
L 489.889832 138.779484 
L 489.492872 144.196207 
L 487.855897 152.227023 
L 486.235681 157.219281 
L 483.146781 164.231663 
L 478.211863 172.641785 
L 473.969289 178.181265 
L 470.929405 181.509046 
L 467.726877 184.56531 
L 462.767808 188.705908 
L 459.387815 191.268377 
L 455.928208 193.629951 
L 450.628199 196.785705 
L 441.583381 201.164102 
L 437.907715 202.586045 
L 430.468134 204.894275 
L 426.710666 205.790803 
L 422.940082 206.528388 
L 419.148507 207.081021 
L 413.441038 207.628365 
L 409.643163 207.854813 
L 403.9372 207.872449 
L 400.14046 207.691415 
L 396.339198 207.331563 
L 390.646363 206.533376 
L 386.871694 205.861258 
L 379.38684 204.003423 
L 375.670647 202.797065 
L 370.138608 200.664906 
L 366.490112 199.06055 
L 361.321067 196.584668 
L 359.784941 195.981809 
L 361.174578 197.465693 
L 363.778033 200.763182 
L 367.88617 207.347801 
L 368.516758 208.933601 
L 367.317177 207.47095 
L 367.317177 207.47095 
" clip-path="url(#p5d43aa48a1)" style="fill: none; stroke: #1f77b4; stroke-width: 2; stroke-linecap: square"/>
   </g>
   <g id="patch_3">
    <path d="M 72 384.48 
L 72 51.84 
" style="fill: none; stroke: #000000; stroke-width: 0.8; stroke-linejoin: miter; stroke-linecap: square"/>
   </g>
   <g id="patch_4">
    <path d="M 518.4 384.48 
L 518.4 51.84 
" style="fill: none; stroke: #000000; stroke-width: 0.8; stroke-linejoin: miter; stroke-linecap: square"/>
   </g>
   <g id="patch_5">
    <path d="M 72 384.48 
L 518.4 384.48 
" style="fill: none; stroke: #000000; stroke-width: 0.8; stroke-linejoin: miter; stroke-linecap: square"/>
   </g>
   <g id="patch_6">
    <path d="M 72 51.84 
L 518.4 51.84 
" style="fill: none; stroke: #000000; stroke-width: 0.8; stroke-linejoin: miter; stroke-linecap: square"/>
   </g>
   <g id="legend_1">
    <g id="patch_7">
     <path d="M 79 103.874375 
L 195.1125 103.874375 
Q 197.1125 103.874375 197.1125 101.874375 
L 197.1125 58.84 
Q 197.1125 56.84 195.1125 56.84 
L 79 56.84 
Q 77 56.84 77 58.84 
L 77 101.874375 
Q 77 103.874375 79 103.874375 
z
" style="fill: #ffffff; opacity: 0.8; stroke: #cccccc; stroke-linejoin: miter"/>
    </g>
    <g id="line2d_32">
     <path d="M 81 64.938437 
L 91 64.938437 
L 101 64.938437 
" style="fill: none; stroke: #1f77b4; stroke-width: 2; stroke-linecap: square"/>
    </g>
    <g id="text_18">
     <!-- robot world pose -->
     <g transform="translate(109 68.438437) scale(0.1 -0.1)">
      <defs>
       <path id="DejaVuSans-72" d="M 2631 2963 
Q 2534 3019 2420 3045 
Q 2306 3072 2169 3072 
Q 1681 3072 1420 2755 
Q 1159 2438 1159 1844 
L 1159 0 
L 581 0 
L 581 3500 
L 1159 3500 
L 1159 2956 
Q 1341 3275 1631 3429 
Q 1922 3584 2338 3584 
Q 2397 3584 2469 3576 
Q 2541 3569 2628 3553 
L 2631 2963 
z
" transform="scale(0.015625)"/>
       <path id="DejaVuSans-6f" d="M 1959 3097 
Q 1497 3097 1228 2736 
Q 959 2375 959 1747 
Q 959 1119 1226 758 
Q 1494 397 1959 397 
Q 2419 397 2687 759 
Q 2956 1122 2956 1747 
Q 2956 2369 2687 2733 
Q 2419 3097 1959 3097 
z
M 1959 3584 
Q 2709 3584 3137 3096 
Q 3566 2609 3566 1747 
Q 3566 888 3137 398 
Q 2709 -91 1959 -91 
Q 1206 -91 779 398 
Q 353 888 353 1747 
Q 353 2609 779 3096 
Q 1206 3584 1959 3584 
z
" transform="scale(0.015625)"/>
       <path id="DejaVuSans-62" d="M 3116 1747 
Q 3116 2381 2855 2742 
Q 2594 3103 2138 3103 
Q 1681 3103 1420 2742 
Q 1159 2381 1159 1747 
Q 1159 1113 1420 752 
Q 1681 391 2138 391 
Q 2594 391 2855 752 
Q 3116 1113 3116 1747 
z
M 1159 2969 
Q 1341 3281 1617 3432 
Q 1894 3584 2278 3584 
Q 2916 3584 3314 3078 
Q 3713 2572 3713 1747 
Q 3713 922 3314 415 
Q 2916 -91 2278 -91 
Q 1894 -91 1617 61 
Q 1341 213 1159 525 
L 1159 0 
L 581 0 
L 581 4863 
L 1159 4863 
L 1159 2969 
z
" transform="scale(0.015625)"/>
       <path id="DejaVuSans-74" d="M 1172 4494 
L 1172 3500 
L 2356 3500 
L 2356 3053 
L 1172 3053 
L 1172 1153 
Q 1172 725 1289 603 
Q 1406 481 1766 481 
L 2356 481 
L 2356 0 
L 1766 0 
Q 1100 0 847 248 
Q 594 497 594 1153 
L 594 3053 
L 172 3053 
L 172 3500 
L 594 3500 
L 594 4494 
L 1172 4494 
z
" transform="scale(0.015625)"/>
       <path id="DejaVuSans-6c" d="M 603 4863 
L 1178 4863 
L 1178 0 
L 603 0 
L 603 4863 
z
" transform="scale(0.015625)"/>
       <path id="DejaVuSans-64" d="M 2906 2969 
L 2906 4863 
L 3481 4863 
L 3481 0 
L 2906 0 
L 2906 525 
Q 2725 213 2448 61 
Q 2172 -91 1784 -91 
Q 1150 -91 751 415 
Q 353 922 353 1747 
Q 353 2572 751 3078 
Q 1150 3584 1784 3584 
Q 2172 3584 2448 3432 
Q 2725 3281 2906 2969 
z
M 947 1747 
Q 947 1113 1208 752 
Q 1469 391 1925 391 
Q 2381 391 2643 752 
Q 2906 1113 2906 1747 
Q 2906 2381 2643 2742 
Q 2381 3103 1925 3103 
Q 1469 3103 1208 2742 
Q 947 2381 947 1747 
z
" transform="scale(0.015625)"/>
       <path id="DejaVuSans-70" d="M 1159 525 
L 1159 -1331 
L 581 -1331 
L 581 3500 
L 1159 3500 
L 1159 2969 
Q 1341 3281 1617 3432 
Q 1894 3584 2278 3584 
Q 2916 3584 3314 3078 
Q 3713 2572 3713 1747 
Q 3713 922 3314 415 
Q 2916 -91 2278 -91 
Q 1894 -91 1617 61 
Q 1341 213 1159 525 
z
M 3116 1747 
Q 3116 2381 2855 2742 
Q 2594 3103 2138 3103 
Q 1681 3103 1420 2742 
Q 1159 2381 1159 1747 
Q 1159 1113 1420 752 
Q 1681 391 2138 391 
Q 2594 391 2855 752 
Q 3116 1113 3116 1747 
z
" transform="scale(0.015625)"/>
       <path id="DejaVuSans-73" d="M 2834 3397 
L 2834 2853 
Q 2591 2978 2328 3040 
Q 2066 3103 1784 3103 
Q 1356 3103 1142 2972 
Q 928 2841 928 2578 
Q 928 2378 1081 2264 
Q 1234 2150 1697 2047 
L 1894 2003 
Q 2506 1872 2764 1633 
Q 3022 1394 3022 966 
Q 3022 478 2636 193 
Q 2250 -91 1575 -91 
Q 1294 -91 989 -36 
Q 684 19 347 128 
L 347 722 
Q 666 556 975 473 
Q 1284 391 1588 391 
Q 1994 391 2212 530 
Q 2431 669 2431 922 
Q 2431 1156 2273 1281 
Q 2116 1406 1581 1522 
L 1381 1569 
Q 847 1681 609 1914 
Q 372 2147 372 2553 
Q 372 3047 722 3315 
Q 1072 3584 1716 3584 
Q 2034 3584 2315 3537 
Q 2597 3491 2834 3397 
z
" transform="scale(0.015625)"/>
       <path id="DejaVuSans-65" d="M 3597 1894 
L 3597 1613 
L 953 1613 
Q 991 1019 1311 708 
Q 1631 397 2203 397 
Q 2534 397 2845 478 
Q 3156 559 3463 722 
L 3463 178 
Q 3153 47 2828 -22 
Q 2503 -91 2169 -91 
Q 1331 -91 842 396 
Q 353 884 353 1716 
Q 353 2575 817 3079 
Q 1281 3584 2069 3584 
Q 2775 3584 3186 3129 
Q 3597 2675 3597 1894 
z
M 3022 2063 
Q 3016 2534 2758 2815 
Q 2500 3097 2075 3097 
Q 1594 3097 1305 2825 
Q 1016 2553 972 2059 
L 3022 2063 
z
" transform="scale(0.015625)"/>
      </defs>
      <use xlink:href="#DejaVuSans-72"/>
      <use xlink:href="#DejaVuSans-6f" transform="translate(38.863281 0)"/>
      <use xlink:href="#DejaVuSans-62" transform="translate(100.044922 0)"/>
      <use xlink:href="#DejaVuSans-6f" transform="translate(163.521484 0)"/>
      <use xlink:href="#DejaVuSans-74" transform="translate(224.703125 0)"/>
      <use xlink:href="#DejaVuSans-20" transform="translate(263.912109 0)"/>
      <use xlink:href="#DejaVuSans-77" transform="translate(295.699219 0)"/>
      <use xlink:href="#DejaVuSans-6f" transform="translate(377.486328 0)"/>
      <use xlink:href="#DejaVuSans-72" transform="translate(438.667969 0)"/>
      <use xlink:href="#DejaVuSans-6c" transform="translate(479.78125 0)"/>
      <use xlink:href="#DejaVuSans-64" transform="translate(507.564453 0)"/>
      <use xlink:href="#DejaVuSans-20" transform="translate(571.041016 0)"/>
      <use xlink:href="#DejaVuSans-70" transform="translate(602.828125 0)"/>
      <use xlink:href="#DejaVuSans-6f" transform="translate(666.304688 0)"/>
      <use xlink:href="#DejaVuSans-73" transform="translate(727.486328 0)"/>
      <use xlink:href="#DejaVuSans-65" transform="translate(779.585938 0)"/>
     </g>
    </g>
    <g id="PathCollection_3">
     <g>
      <use xlink:href="#m55072a24ed" x="91" y="80.491562" style="fill: #1f77b4; stroke: #1f77b4"/>
     </g>
    </g>
    <g id="text_19">
     <!-- Start -->
     <g transform="translate(109 83.116562) scale(0.1 -0.1)">
      <defs>
       <path id="DejaVuSans-53" d="M 3425 4513 
L 3425 3897 
Q 3066 4069 2747 4153 
Q 2428 4238 2131 4238 
Q 1616 4238 1336 4038 
Q 1056 3838 1056 3469 
Q 1056 3159 1242 3001 
Q 1428 2844 1947 2747 
L 2328 2669 
Q 3034 2534 3370 2195 
Q 3706 1856 3706 1288 
Q 3706 609 3251 259 
Q 2797 -91 1919 -91 
Q 1588 -91 1214 -16 
Q 841 59 441 206 
L 441 856 
Q 825 641 1194 531 
Q 1563 422 1919 422 
Q 2459 422 2753 634 
Q 3047 847 3047 1241 
Q 3047 1584 2836 1778 
Q 2625 1972 2144 2069 
L 1759 2144 
Q 1053 2284 737 2584 
Q 422 2884 422 3419 
Q 422 4038 858 4394 
Q 1294 4750 2059 4750 
Q 2388 4750 2728 4690 
Q 3069 4631 3425 4513 
z
" transform="scale(0.015625)"/>
       <path id="DejaVuSans-61" d="M 2194 1759 
Q 1497 1759 1228 1600 
Q 959 1441 959 1056 
Q 959 750 1161 570 
Q 1363 391 1709 391 
Q 2188 391 2477 730 
Q 2766 1069 2766 1631 
L 2766 1759 
L 2194 1759 
z
M 3341 1997 
L 3341 0 
L 2766 0 
L 2766 531 
Q 2569 213 2275 61 
Q 1981 -91 1556 -91 
Q 1019 -91 701 211 
Q 384 513 384 1019 
Q 384 1609 779 1909 
Q 1175 2209 1959 2209 
L 2766 2209 
L 2766 2266 
Q 2766 2663 2505 2880 
Q 2244 3097 1772 3097 
Q 1472 3097 1187 3025 
Q 903 2953 641 2809 
L 641 3341 
Q 956 3463 1253 3523 
Q 1550 3584 1831 3584 
Q 2591 3584 2966 3190 
Q 3341 2797 3341 1997 
z
" transform="scale(0.015625)"/>
      </defs>
      <use xlink:href="#DejaVuSans-53"/>
      <use xlink:href="#DejaVuSans-74" transform="translate(63.476562 0)"/>
      <use xlink:href="#DejaVuSans-61" transform="translate(102.685547 0)"/>
      <use xlink:href="#DejaVuSans-72" transform="translate(163.964844 0)"/>
      <use xlink:href="#DejaVuSans-74" transform="translate(205.078125 0)"/>
     </g>
    </g>
    <g id="PathCollection_4">
     <g>
      <use xlink:href="#m9263da1d1f" x="91" y="95.169687" style="fill: #ff7f0e; stroke: #ff7f0e; stroke-width: 1.5"/>
     </g>
    </g>
    <g id="text_20">
     <!-- End -->
     <g transform="translate(109 97.794687) scale(0.1 -0.1)">
      <defs>
       <path id="DejaVuSans-45" d="M 628 4666 
L 3578 4666 
L 3578 4134 
L 1259 4134 
L 1259 2753 
L 3481 2753 
L 3481 2222 
L 1259 2222 
L 1259 531 
L 3634 531 
L 3634 0 
L 628 0 
L 628 4666 
z
" transform="scale(0.015625)"/>
       <path id="DejaVuSans-6e" d="M 3513 2113 
L 3513 0 
L 2938 0 
L 2938 2094 
Q 2938 2591 2744 2837 
Q 2550 3084 2163 3084 
Q 1697 3084 1428 2787 
Q 1159 2491 1159 1978 
L 1159 0 
L 581 0 
L 581 3500 
L 1159 3500 
L 1159 2956 
Q 1366 3272 1645 3428 
Q 1925 3584 2291 3584 
Q 2894 3584 3203 3211 
Q 3513 2838 3513 2113 
z
" transform="scale(0.015625)"/>
      </defs>
      <use xlink:href="#DejaVuSans-45"/>
      <use xlink:href="#DejaVuSans-6e" transform="translate(63.183594 0)"/>
      <use xlink:href="#DejaVuSans-64" transform="translate(126.5625 0)"/>
     </g>
    </g>
   </g>
  </g>
 </g>
 <defs>
  <clipPath id="p5d43aa48a1">
   <rect x="72" y="51.84" width="446.4" height="332.64"/>
  </clipPath>
 </defs>
</svg>
