<?xml version="1.0" encoding="utf-8" standalone="no"?>
<!DOCTYPE svg PUBLIC "-//W3C//DTD SVG 1.1//EN"
  "http://www.w3.org/Graphics/SVG/1.1/DTD/svg11.dtd">
<svg xmlns:xlink="http://www.w3.org/1999/xlink" width="576pt" height="432pt" viewBox="0 0 576 432" xmlns="http://www.w3.org/2000/svg" version="1.1">
 <metadata>
  <rdf:RDF xmlns:dc="http://purl.org/dc/elements/1.1/" xmlns:cc="http://creativecommons.org/ns#" xmlns:rdf="http://www.w3.org/1999/02/22-rdf-syntax-ns#">
   <cc:Work>
    <dc:type rdf:resource="http://purl.org/dc/dcmitype/StillImage"/>
    <dc:date>2025-11-27T04:24:18.303050</dc:date>
    <dc:format>image/svg+xml</dc:format>
    <dc:creator>
     <cc:Agent>
      <dc:title>Matplotlib v3.10.6, https://matplotlib.org/</dc:title>
     </cc:Agent>
    </dc:creator>
   </cc:Work>
  </rdf:RDF>
 </metadata>
 <defs>
  <style type="text/css">*{stroke-linejoin: round; stroke-linecap: butt}</style>
 </defs>
 <g id="figure_1">
  <g id="patch_1">
   <path d="M 0 432 
L 576 432 
L 576 0 
L 0 0 
z
" style="fill: #ffffff"/>
  </g>
  <g id="axes_1">
   <g id="patch_2">
    <path d="M 72 384.48 
L 518.4 384.48 
L 518.4 51.84 
L 72 51.84 
z
" style="fill: #ffffff"/>
   </g>
   <g id="matplotlib.axis_1">
    <g id="xtick_1">
     <g id="line2d_1">
      <path d="M 92.290909 384.48 
L 92.290909 51.84 
" clip-path="url(#pb73497d14e)" style="fill: none; stroke-dasharray: 0.8,1.32; stroke-dashoffset: 0; stroke: #b0b0b0; stroke-opacity: 0.6; stroke-width: 0.8"/>
     </g>
     <g id="line2d_2">
      <defs>
       <path id="mb22ad34edd" d="M 0 0 
L 0 3.5 
" style="stroke: #000000; stroke-width: 0.8"/>
      </defs>
      <g>
       <use xlink:href="#mb22ad34edd" x="92.290909" y="384.48" style="stroke: #000000; stroke-width: 0.8"/>
      </g>
     </g>
     <g id="text_1">
      <!-- 0 -->
      <g transform="translate(89.109659 399.078438) scale(0.1 -0.1)">
       <defs>
        <path id="DejaVuSans-30" d="M 2034 4250 
Q 1547 4250 1301 3770 
Q 1056 3291 1056 2328 
Q 1056 1369 1301 889 
Q 1547 409 2034 409 
Q 2525 409 2770 889 
Q 3016 1369 3016 2328 
Q 3016 3291 2770 3770 
Q 2525 4250 2034 4250 
z
M 2034 4750 
Q 2819 4750 3233 4129 
Q 3647 3509 3647 2328 
Q 3647 1150 3233 529 
Q 2819 -91 2034 -91 
Q 1250 -91 836 529 
Q 422 1150 422 2328 
Q 422 3509 836 4129 
Q 1250 4750 2034 4750 
z
" transform="scale(0.015625)"/>
       </defs>
       <use xlink:href="#DejaVuSans-30"/>
      </g>
     </g>
    </g>
    <g id="xtick_2">
     <g id="line2d_3">
      <path d="M 146.523148 384.48 
L 146.523148 51.84 
" clip-path="url(#pb73497d14e)" style="fill: none; stroke-dasharray: 0.8,1.32; stroke-dashoffset: 0; stroke: #b0b0b0; stroke-opacity: 0.6; stroke-width: 0.8"/>
     </g>
     <g id="line2d_4">
      <g>
       <use xlink:href="#mb22ad34edd" x="146.523148" y="384.48" style="stroke: #000000; stroke-width: 0.8"/>
      </g>
     </g>
     <g id="text_2">
      <!-- 2 -->
      <g transform="translate(143.341898 399.078438) scale(0.1 -0.1)">
       <defs>
        <path id="DejaVuSans-32" d="M 1228 531 
L 3431 531 
L 3431 0 
L 469 0 
L 469 531 
Q 828 903 1448 1529 
Q 2069 2156 2228 2338 
Q 2531 2678 2651 2914 
Q 2772 3150 2772 3378 
Q 2772 3750 2511 3984 
Q 2250 4219 1831 4219 
Q 1534 4219 1204 4116 
Q 875 4013 500 3803 
L 500 4441 
Q 881 4594 1212 4672 
Q 1544 4750 1819 4750 
Q 2544 4750 2975 4387 
Q 3406 4025 3406 3419 
Q 3406 3131 3298 2873 
Q 3191 2616 2906 2266 
Q 2828 2175 2409 1742 
Q 1991 1309 1228 531 
z
" transform="scale(0.015625)"/>
       </defs>
       <use xlink:href="#DejaVuSans-32"/>
      </g>
     </g>
    </g>
    <g id="xtick_3">
     <g id="line2d_5">
      <path d="M 200.755386 384.48 
L 200.755386 51.84 
" clip-path="url(#pb73497d14e)" style="fill: none; stroke-dasharray: 0.8,1.32; stroke-dashoffset: 0; stroke: #b0b0b0; stroke-opacity: 0.6; stroke-width: 0.8"/>
     </g>
     <g id="line2d_6">
      <g>
       <use xlink:href="#mb22ad34edd" x="200.755386" y="384.48" style="stroke: #000000; stroke-width: 0.8"/>
      </g>
     </g>
     <g id="text_3">
      <!-- 4 -->
      <g transform="translate(197.574136 399.078438) scale(0.1 -0.1)">
       <defs>
        <path id="DejaVuSans-34" d="M 2419 4116 
L 825 1625 
L 2419 1625 
L 2419 4116 
z
M 2253 4666 
L 3047 4666 
L 3047 1625 
L 3713 1625 
L 3713 1100 
L 3047 1100 
L 3047 0 
L 2419 0 
L 2419 1100 
L 313 1100 
L 313 1709 
L 2253 4666 
z
" transform="scale(0.015625)"/>
       </defs>
       <use xlink:href="#DejaVuSans-34"/>
      </g>
     </g>
    </g>
    <g id="xtick_4">
     <g id="line2d_7">
      <path d="M 254.987625 384.48 
L 254.987625 51.84 
" clip-path="url(#pb73497d14e)" style="fill: none; stroke-dasharray: 0.8,1.32; stroke-dashoffset: 0; stroke: #b0b0b0; stroke-opacity: 0.6; stroke-width: 0.8"/>
     </g>
     <g id="line2d_8">
      <g>
       <use xlink:href="#mb22ad34edd" x="254.987625" y="384.48" style="stroke: #000000; stroke-width: 0.8"/>
      </g>
     </g>
     <g id="text_4">
      <!-- 6 -->
      <g transform="translate(251.806375 399.078438) scale(0.1 -0.1)">
       <defs>
        <path id="DejaVuSans-36" d="M 2113 2584 
Q 1688 2584 1439 2293 
Q 1191 2003 1191 1497 
Q 1191 994 1439 701 
Q 1688 409 2113 409 
Q 2538 409 2786 701 
Q 3034 994 3034 1497 
Q 3034 2003 2786 2293 
Q 2538 2584 2113 2584 
z
M 3366 4563 
L 3366 3988 
Q 3128 4100 2886 4159 
Q 2644 4219 2406 4219 
Q 1781 4219 1451 3797 
Q 1122 3375 1075 2522 
Q 1259 2794 1537 2939 
Q 1816 3084 2150 3084 
Q 2853 3084 3261 2657 
Q 3669 2231 3669 1497 
Q 3669 778 3244 343 
Q 2819 -91 2113 -91 
Q 1303 -91 875 529 
Q 447 1150 447 2328 
Q 447 3434 972 4092 
Q 1497 4750 2381 4750 
Q 2619 4750 2861 4703 
Q 3103 4656 3366 4563 
z
" transform="scale(0.015625)"/>
       </defs>
       <use xlink:href="#DejaVuSans-36"/>
      </g>
     </g>
    </g>
    <g id="xtick_5">
     <g id="line2d_9">
      <path d="M 309.219863 384.48 
L 309.219863 51.84 
" clip-path="url(#pb73497d14e)" style="fill: none; stroke-dasharray: 0.8,1.32; stroke-dashoffset: 0; stroke: #b0b0b0; stroke-opacity: 0.6; stroke-width: 0.8"/>
     </g>
     <g id="line2d_10">
      <g>
       <use xlink:href="#mb22ad34edd" x="309.219863" y="384.48" style="stroke: #000000; stroke-width: 0.8"/>
      </g>
     </g>
     <g id="text_5">
      <!-- 8 -->
      <g transform="translate(306.038613 399.078438) scale(0.1 -0.1)">
       <defs>
        <path id="DejaVuSans-38" d="M 2034 2216 
Q 1584 2216 1326 1975 
Q 1069 1734 1069 1313 
Q 1069 891 1326 650 
Q 1584 409 2034 409 
Q 2484 409 2743 651 
Q 3003 894 3003 1313 
Q 3003 1734 2745 1975 
Q 2488 2216 2034 2216 
z
M 1403 2484 
Q 997 2584 770 2862 
Q 544 3141 544 3541 
Q 544 4100 942 4425 
Q 1341 4750 2034 4750 
Q 2731 4750 3128 4425 
Q 3525 4100 3525 3541 
Q 3525 3141 3298 2862 
Q 3072 2584 2669 2484 
Q 3125 2378 3379 2068 
Q 3634 1759 3634 1313 
Q 3634 634 3220 271 
Q 2806 -91 2034 -91 
Q 1263 -91 848 271 
Q 434 634 434 1313 
Q 434 1759 690 2068 
Q 947 2378 1403 2484 
z
M 1172 3481 
Q 1172 3119 1398 2916 
Q 1625 2713 2034 2713 
Q 2441 2713 2670 2916 
Q 2900 3119 2900 3481 
Q 2900 3844 2670 4047 
Q 2441 4250 2034 4250 
Q 1625 4250 1398 4047 
Q 1172 3844 1172 3481 
z
" transform="scale(0.015625)"/>
       </defs>
       <use xlink:href="#DejaVuSans-38"/>
      </g>
     </g>
    </g>
    <g id="xtick_6">
     <g id="line2d_11">
      <path d="M 363.452102 384.48 
L 363.452102 51.84 
" clip-path="url(#pb73497d14e)" style="fill: none; stroke-dasharray: 0.8,1.32; stroke-dashoffset: 0; stroke: #b0b0b0; stroke-opacity: 0.6; stroke-width: 0.8"/>
     </g>
     <g id="line2d_12">
      <g>
       <use xlink:href="#mb22ad34edd" x="363.452102" y="384.48" style="stroke: #000000; stroke-width: 0.8"/>
      </g>
     </g>
     <g id="text_6">
      <!-- 10 -->
      <g transform="translate(357.089602 399.078438) scale(0.1 -0.1)">
       <defs>
        <path id="DejaVuSans-31" d="M 794 531 
L 1825 531 
L 1825 4091 
L 703 3866 
L 703 4441 
L 1819 4666 
L 2450 4666 
L 2450 531 
L 3481 531 
L 3481 0 
L 794 0 
L 794 531 
z
" transform="scale(0.015625)"/>
       </defs>
       <use xlink:href="#DejaVuSans-31"/>
       <use xlink:href="#DejaVuSans-30" transform="translate(63.623047 0)"/>
      </g>
     </g>
    </g>
    <g id="xtick_7">
     <g id="line2d_13">
      <path d="M 417.68434 384.48 
L 417.68434 51.84 
" clip-path="url(#pb73497d14e)" style="fill: none; stroke-dasharray: 0.8,1.32; stroke-dashoffset: 0; stroke: #b0b0b0; stroke-opacity: 0.6; stroke-width: 0.8"/>
     </g>
     <g id="line2d_14">
      <g>
       <use xlink:href="#mb22ad34edd" x="417.68434" y="384.48" style="stroke: #000000; stroke-width: 0.8"/>
      </g>
     </g>
     <g id="text_7">
      <!-- 12 -->
      <g transform="translate(411.32184 399.078438) scale(0.1 -0.1)">
       <use xlink:href="#DejaVuSans-31"/>
       <use xlink:href="#DejaVuSans-32" transform="translate(63.623047 0)"/>
      </g>
     </g>
    </g>
    <g id="xtick_8">
     <g id="line2d_15">
      <path d="M 471.916579 384.48 
L 471.916579 51.84 
" clip-path="url(#pb73497d14e)" style="fill: none; stroke-dasharray: 0.8,1.32; stroke-dashoffset: 0; stroke: #b0b0b0; stroke-opacity: 0.6; stroke-width: 0.8"/>
     </g>
     <g id="line2d_16">
      <g>
       <use xlink:href="#mb22ad34edd" x="471.916579" y="384.48" style="stroke: #000000; stroke-width: 0.8"/>
      </g>
     </g>
     <g id="text_8">
      <!-- 14 -->
      <g transform="translate(465.554079 399.078438) scale(0.1 -0.1)">
       <use xlink:href="#DejaVuSans-31"/>
       <use xlink:href="#DejaVuSans-34" transform="translate(63.623047 0)"/>
      </g>
     </g>
    </g>
    <g id="text_9">
     <!-- t (sec) -->
     <g transform="translate(276.1425 414.27625) scale(0.12 -0.12)">
      <defs>
       <path id="DejaVuSans-74" d="M 1172 4494 
L 1172 3500 
L 2356 3500 
L 2356 3053 
L 1172 3053 
L 1172 1153 
Q 1172 725 1289 603 
Q 1406 481 1766 481 
L 2356 481 
L 2356 0 
L 1766 0 
Q 1100 0 847 248 
Q 594 497 594 1153 
L 594 3053 
L 172 3053 
L 172 3500 
L 594 3500 
L 594 4494 
L 1172 4494 
z
" transform="scale(0.015625)"/>
       <path id="DejaVuSans-20" transform="scale(0.015625)"/>
       <path id="DejaVuSans-28" d="M 1984 4856 
Q 1566 4138 1362 3434 
Q 1159 2731 1159 2009 
Q 1159 1288 1364 580 
Q 1569 -128 1984 -844 
L 1484 -844 
Q 1016 -109 783 600 
Q 550 1309 550 2009 
Q 550 2706 781 3412 
Q 1013 4119 1484 4856 
L 1984 4856 
z
" transform="scale(0.015625)"/>
       <path id="DejaVuSans-73" d="M 2834 3397 
L 2834 2853 
Q 2591 2978 2328 3040 
Q 2066 3103 1784 3103 
Q 1356 3103 1142 2972 
Q 928 2841 928 2578 
Q 928 2378 1081 2264 
Q 1234 2150 1697 2047 
L 1894 2003 
Q 2506 1872 2764 1633 
Q 3022 1394 3022 966 
Q 3022 478 2636 193 
Q 2250 -91 1575 -91 
Q 1294 -91 989 -36 
Q 684 19 347 128 
L 347 722 
Q 666 556 975 473 
Q 1284 391 1588 391 
Q 1994 391 2212 530 
Q 2431 669 2431 922 
Q 2431 1156 2273 1281 
Q 2116 1406 1581 1522 
L 1381 1569 
Q 847 1681 609 1914 
Q 372 2147 372 2553 
Q 372 3047 722 3315 
Q 1072 3584 1716 3584 
Q 2034 3584 2315 3537 
Q 2597 3491 2834 3397 
z
" transform="scale(0.015625)"/>
       <path id="DejaVuSans-65" d="M 3597 1894 
L 3597 1613 
L 953 1613 
Q 991 1019 1311 708 
Q 1631 397 2203 397 
Q 2534 397 2845 478 
Q 3156 559 3463 722 
L 3463 178 
Q 3153 47 2828 -22 
Q 2503 -91 2169 -91 
Q 1331 -91 842 396 
Q 353 884 353 1716 
Q 353 2575 817 3079 
Q 1281 3584 2069 3584 
Q 2775 3584 3186 3129 
Q 3597 2675 3597 1894 
z
M 3022 2063 
Q 3016 2534 2758 2815 
Q 2500 3097 2075 3097 
Q 1594 3097 1305 2825 
Q 1016 2553 972 2059 
L 3022 2063 
z
" transform="scale(0.015625)"/>
       <path id="DejaVuSans-63" d="M 3122 3366 
L 3122 2828 
Q 2878 2963 2633 3030 
Q 2388 3097 2138 3097 
Q 1578 3097 1268 2742 
Q 959 2388 959 1747 
Q 959 1106 1268 751 
Q 1578 397 2138 397 
Q 2388 397 2633 464 
Q 2878 531 3122 666 
L 3122 134 
Q 2881 22 2623 -34 
Q 2366 -91 2075 -91 
Q 1284 -91 818 406 
Q 353 903 353 1747 
Q 353 2603 823 3093 
Q 1294 3584 2113 3584 
Q 2378 3584 2631 3529 
Q 2884 3475 3122 3366 
z
" transform="scale(0.015625)"/>
       <path id="DejaVuSans-29" d="M 513 4856 
L 1013 4856 
Q 1481 4119 1714 3412 
Q 1947 2706 1947 2009 
Q 1947 1309 1714 600 
Q 1481 -109 1013 -844 
L 513 -844 
Q 928 -128 1133 580 
Q 1338 1288 1338 2009 
Q 1338 2731 1133 3434 
Q 928 4138 513 4856 
z
" transform="scale(0.015625)"/>
      </defs>
      <use xlink:href="#DejaVuSans-74"/>
      <use xlink:href="#DejaVuSans-20" transform="translate(39.208984 0)"/>
      <use xlink:href="#DejaVuSans-28" transform="translate(70.996094 0)"/>
      <use xlink:href="#DejaVuSans-73" transform="translate(110.009766 0)"/>
      <use xlink:href="#DejaVuSans-65" transform="translate(162.109375 0)"/>
      <use xlink:href="#DejaVuSans-63" transform="translate(223.632812 0)"/>
      <use xlink:href="#DejaVuSans-29" transform="translate(278.613281 0)"/>
     </g>
    </g>
   </g>
   <g id="matplotlib.axis_2">
    <g id="ytick_1">
     <g id="line2d_17">
      <path d="M 72 370.230732 
L 518.4 370.230732 
" clip-path="url(#pb73497d14e)" style="fill: none; stroke-dasharray: 0.8,1.32; stroke-dashoffset: 0; stroke: #b0b0b0; stroke-opacity: 0.6; stroke-width: 0.8"/>
     </g>
     <g id="line2d_18">
      <defs>
       <path id="m3b4a46ee35" d="M 0 0 
L -3.5 0 
" style="stroke: #000000; stroke-width: 0.8"/>
      </defs>
      <g>
       <use xlink:href="#m3b4a46ee35" x="72" y="370.230732" style="stroke: #000000; stroke-width: 0.8"/>
      </g>
     </g>
     <g id="text_10">
      <!-- −125 -->
      <g transform="translate(37.532812 374.029951) scale(0.1 -0.1)">
       <defs>
        <path id="DejaVuSans-2212" d="M 678 2272 
L 4684 2272 
L 4684 1741 
L 678 1741 
L 678 2272 
z
" transform="scale(0.015625)"/>
        <path id="DejaVuSans-35" d="M 691 4666 
L 3169 4666 
L 3169 4134 
L 1269 4134 
L 1269 2991 
Q 1406 3038 1543 3061 
Q 1681 3084 1819 3084 
Q 2600 3084 3056 2656 
Q 3513 2228 3513 1497 
Q 3513 744 3044 326 
Q 2575 -91 1722 -91 
Q 1428 -91 1123 -41 
Q 819 9 494 109 
L 494 744 
Q 775 591 1075 516 
Q 1375 441 1709 441 
Q 2250 441 2565 725 
Q 2881 1009 2881 1497 
Q 2881 1984 2565 2268 
Q 2250 2553 1709 2553 
Q 1456 2553 1204 2497 
Q 953 2441 691 2322 
L 691 4666 
z
" transform="scale(0.015625)"/>
       </defs>
       <use xlink:href="#DejaVuSans-2212"/>
       <use xlink:href="#DejaVuSans-31" transform="translate(83.789062 0)"/>
       <use xlink:href="#DejaVuSans-32" transform="translate(147.412109 0)"/>
       <use xlink:href="#DejaVuSans-35" transform="translate(211.035156 0)"/>
      </g>
     </g>
    </g>
    <g id="ytick_2">
     <g id="line2d_19">
      <path d="M 72 331.999189 
L 518.4 331.999189 
" clip-path="url(#pb73497d14e)" style="fill: none; stroke-dasharray: 0.8,1.32; stroke-dashoffset: 0; stroke: #b0b0b0; stroke-opacity: 0.6; stroke-width: 0.8"/>
     </g>
     <g id="line2d_20">
      <g>
       <use xlink:href="#m3b4a46ee35" x="72" y="331.999189" style="stroke: #000000; stroke-width: 0.8"/>
      </g>
     </g>
     <g id="text_11">
      <!-- −100 -->
      <g transform="translate(37.532812 335.798408) scale(0.1 -0.1)">
       <use xlink:href="#DejaVuSans-2212"/>
       <use xlink:href="#DejaVuSans-31" transform="translate(83.789062 0)"/>
       <use xlink:href="#DejaVuSans-30" transform="translate(147.412109 0)"/>
       <use xlink:href="#DejaVuSans-30" transform="translate(211.035156 0)"/>
      </g>
     </g>
    </g>
    <g id="ytick_3">
     <g id="line2d_21">
      <path d="M 72 293.767646 
L 518.4 293.767646 
" clip-path="url(#pb73497d14e)" style="fill: none; stroke-dasharray: 0.8,1.32; stroke-dashoffset: 0; stroke: #b0b0b0; stroke-opacity: 0.6; stroke-width: 0.8"/>
     </g>
     <g id="line2d_22">
      <g>
       <use xlink:href="#m3b4a46ee35" x="72" y="293.767646" style="stroke: #000000; stroke-width: 0.8"/>
      </g>
     </g>
     <g id="text_12">
      <!-- −75 -->
      <g transform="translate(43.895313 297.566865) scale(0.1 -0.1)">
       <defs>
        <path id="DejaVuSans-37" d="M 525 4666 
L 3525 4666 
L 3525 4397 
L 1831 0 
L 1172 0 
L 2766 4134 
L 525 4134 
L 525 4666 
z
" transform="scale(0.015625)"/>
       </defs>
       <use xlink:href="#DejaVuSans-2212"/>
       <use xlink:href="#DejaVuSans-37" transform="translate(83.789062 0)"/>
       <use xlink:href="#DejaVuSans-35" transform="translate(147.412109 0)"/>
      </g>
     </g>
    </g>
    <g id="ytick_4">
     <g id="line2d_23">
      <path d="M 72 255.536104 
L 518.4 255.536104 
" clip-path="url(#pb73497d14e)" style="fill: none; stroke-dasharray: 0.8,1.32; stroke-dashoffset: 0; stroke: #b0b0b0; stroke-opacity: 0.6; stroke-width: 0.8"/>
     </g>
     <g id="line2d_24">
      <g>
       <use xlink:href="#m3b4a46ee35" x="72" y="255.536104" style="stroke: #000000; stroke-width: 0.8"/>
      </g>
     </g>
     <g id="text_13">
      <!-- −50 -->
      <g transform="translate(43.895313 259.335322) scale(0.1 -0.1)">
       <use xlink:href="#DejaVuSans-2212"/>
       <use xlink:href="#DejaVuSans-35" transform="translate(83.789062 0)"/>
       <use xlink:href="#DejaVuSans-30" transform="translate(147.412109 0)"/>
      </g>
     </g>
    </g>
    <g id="ytick_5">
     <g id="line2d_25">
      <path d="M 72 217.304561 
L 518.4 217.304561 
" clip-path="url(#pb73497d14e)" style="fill: none; stroke-dasharray: 0.8,1.32; stroke-dashoffset: 0; stroke: #b0b0b0; stroke-opacity: 0.6; stroke-width: 0.8"/>
     </g>
     <g id="line2d_26">
      <g>
       <use xlink:href="#m3b4a46ee35" x="72" y="217.304561" style="stroke: #000000; stroke-width: 0.8"/>
      </g>
     </g>
     <g id="text_14">
      <!-- −25 -->
      <g transform="translate(43.895313 221.10378) scale(0.1 -0.1)">
       <use xlink:href="#DejaVuSans-2212"/>
       <use xlink:href="#DejaVuSans-32" transform="translate(83.789062 0)"/>
       <use xlink:href="#DejaVuSans-35" transform="translate(147.412109 0)"/>
      </g>
     </g>
    </g>
    <g id="ytick_6">
     <g id="line2d_27">
      <path d="M 72 179.073018 
L 518.4 179.073018 
" clip-path="url(#pb73497d14e)" style="fill: none; stroke-dasharray: 0.8,1.32; stroke-dashoffset: 0; stroke: #b0b0b0; stroke-opacity: 0.6; stroke-width: 0.8"/>
     </g>
     <g id="line2d_28">
      <g>
       <use xlink:href="#m3b4a46ee35" x="72" y="179.073018" style="stroke: #000000; stroke-width: 0.8"/>
      </g>
     </g>
     <g id="text_15">
      <!-- 0 -->
      <g transform="translate(58.6375 182.872237) scale(0.1 -0.1)">
       <use xlink:href="#DejaVuSans-30"/>
      </g>
     </g>
    </g>
    <g id="ytick_7">
     <g id="line2d_29">
      <path d="M 72 140.841475 
L 518.4 140.841475 
" clip-path="url(#pb73497d14e)" style="fill: none; stroke-dasharray: 0.8,1.32; stroke-dashoffset: 0; stroke: #b0b0b0; stroke-opacity: 0.6; stroke-width: 0.8"/>
     </g>
     <g id="line2d_30">
      <g>
       <use xlink:href="#m3b4a46ee35" x="72" y="140.841475" style="stroke: #000000; stroke-width: 0.8"/>
      </g>
     </g>
     <g id="text_16">
      <!-- 25 -->
      <g transform="translate(52.275 144.640694) scale(0.1 -0.1)">
       <use xlink:href="#DejaVuSans-32"/>
       <use xlink:href="#DejaVuSans-35" transform="translate(63.623047 0)"/>
      </g>
     </g>
    </g>
    <g id="ytick_8">
     <g id="line2d_31">
      <path d="M 72 102.609933 
L 518.4 102.609933 
" clip-path="url(#pb73497d14e)" style="fill: none; stroke-dasharray: 0.8,1.32; stroke-dashoffset: 0; stroke: #b0b0b0; stroke-opacity: 0.6; stroke-width: 0.8"/>
     </g>
     <g id="line2d_32">
      <g>
       <use xlink:href="#m3b4a46ee35" x="72" y="102.609933" style="stroke: #000000; stroke-width: 0.8"/>
      </g>
     </g>
     <g id="text_17">
      <!-- 50 -->
      <g transform="translate(52.275 106.409151) scale(0.1 -0.1)">
       <use xlink:href="#DejaVuSans-35"/>
       <use xlink:href="#DejaVuSans-30" transform="translate(63.623047 0)"/>
      </g>
     </g>
    </g>
    <g id="ytick_9">
     <g id="line2d_33">
      <path d="M 72 64.37839 
L 518.4 64.37839 
" clip-path="url(#pb73497d14e)" style="fill: none; stroke-dasharray: 0.8,1.32; stroke-dashoffset: 0; stroke: #b0b0b0; stroke-opacity: 0.6; stroke-width: 0.8"/>
     </g>
     <g id="line2d_34">
      <g>
       <use xlink:href="#m3b4a46ee35" x="72" y="64.37839" style="stroke: #000000; stroke-width: 0.8"/>
      </g>
     </g>
     <g id="text_18">
      <!-- 75 -->
      <g transform="translate(52.275 68.177609) scale(0.1 -0.1)">
       <use xlink:href="#DejaVuSans-37"/>
       <use xlink:href="#DejaVuSans-35" transform="translate(63.623047 0)"/>
      </g>
     </g>
    </g>
    <g id="text_19">
     <!-- e h (deg) -->
     <g transform="translate(31.037187 245.46) rotate(-90) scale(0.12 -0.12)">
      <defs>
       <path id="DejaVuSans-68" d="M 3513 2113 
L 3513 0 
L 2938 0 
L 2938 2094 
Q 2938 2591 2744 2837 
Q 2550 3084 2163 3084 
Q 1697 3084 1428 2787 
Q 1159 2491 1159 1978 
L 1159 0 
L 581 0 
L 581 4863 
L 1159 4863 
L 1159 2956 
Q 1366 3272 1645 3428 
Q 1925 3584 2291 3584 
Q 2894 3584 3203 3211 
Q 3513 2838 3513 2113 
z
" transform="scale(0.015625)"/>
       <path id="DejaVuSans-64" d="M 2906 2969 
L 2906 4863 
L 3481 4863 
L 3481 0 
L 2906 0 
L 2906 525 
Q 2725 213 2448 61 
Q 2172 -91 1784 -91 
Q 1150 -91 751 415 
Q 353 922 353 1747 
Q 353 2572 751 3078 
Q 1150 3584 1784 3584 
Q 2172 3584 2448 3432 
Q 2725 3281 2906 2969 
z
M 947 1747 
Q 947 1113 1208 752 
Q 1469 391 1925 391 
Q 2381 391 2643 752 
Q 2906 1113 2906 1747 
Q 2906 2381 2643 2742 
Q 2381 3103 1925 3103 
Q 1469 3103 1208 2742 
Q 947 2381 947 1747 
z
" transform="scale(0.015625)"/>
       <path id="DejaVuSans-67" d="M 2906 1791 
Q 2906 2416 2648 2759 
Q 2391 3103 1925 3103 
Q 1463 3103 1205 2759 
Q 947 2416 947 1791 
Q 947 1169 1205 825 
Q 1463 481 1925 481 
Q 2391 481 2648 825 
Q 2906 1169 2906 1791 
z
M 3481 434 
Q 3481 -459 3084 -895 
Q 2688 -1331 1869 -1331 
Q 1566 -1331 1297 -1286 
Q 1028 -1241 775 -1147 
L 775 -588 
Q 1028 -725 1275 -790 
Q 1522 -856 1778 -856 
Q 2344 -856 2625 -561 
Q 2906 -266 2906 331 
L 2906 616 
Q 2728 306 2450 153 
Q 2172 0 1784 0 
Q 1141 0 747 490 
Q 353 981 353 1791 
Q 353 2603 747 3093 
Q 1141 3584 1784 3584 
Q 2172 3584 2450 3431 
Q 2728 3278 2906 2969 
L 2906 3500 
L 3481 3500 
L 3481 434 
z
" transform="scale(0.015625)"/>
      </defs>
      <use xlink:href="#DejaVuSans-65"/>
      <use xlink:href="#DejaVuSans-20" transform="translate(61.523438 0)"/>
      <use xlink:href="#DejaVuSans-68" transform="translate(93.310547 0)"/>
      <use xlink:href="#DejaVuSans-20" transform="translate(156.689453 0)"/>
      <use xlink:href="#DejaVuSans-28" transform="translate(188.476562 0)"/>
      <use xlink:href="#DejaVuSans-64" transform="translate(227.490234 0)"/>
      <use xlink:href="#DejaVuSans-65" transform="translate(290.966797 0)"/>
      <use xlink:href="#DejaVuSans-67" transform="translate(352.490234 0)"/>
      <use xlink:href="#DejaVuSans-29" transform="translate(415.966797 0)"/>
     </g>
    </g>
   </g>
   <g id="line2d_35">
    <path d="M 92.290909 127.179168 
L 95.701312 127.229331 
L 96.463838 127.308356 
L 98.313859 126.857921 
L 99.129346 127.027166 
L 99.850424 127.303898 
L 101.905618 127.041042 
L 102.646079 129.310202 
L 105.124981 129.300314 
L 107.16224 129.549922 
L 107.896766 130.433021 
L 108.616953 132.902275 
L 109.364577 133.281126 
L 110.406009 136.37408 
L 112.307038 137.679438 
L 113.284402 140.935222 
L 116.582799 144.228262 
L 117.523041 147.861545 
L 118.821094 149.310867 
L 120.249629 150.72945 
L 120.901895 154.046062 
L 121.822703 155.174758 
L 123.180719 156.555801 
L 124.144254 160.158748 
L 125.451752 161.374062 
L 127.427129 163.368912 
L 128.135226 166.307046 
L 129.115331 167.163589 
L 130.173798 167.88031 
L 130.881539 170.843508 
L 131.886198 171.580855 
L 133.367488 172.113478 
L 134.034752 68.320949 
L 134.761094 66.96 
L 136.06717 73.676181 
L 138.16778 92.669093 
L 139.069134 97.939517 
L 139.803583 105.516402 
L 141.130398 114.45704 
L 142.105118 120.516689 
L 143.057559 127.465314 
L 144.348979 134.165922 
L 145.238025 302.979522 
L 145.899981 309.392164 
L 146.837404 312.516616 
L 147.901321 303.076508 
L 149.191713 284.124657 
L 150.084011 273.802003 
L 151.148458 76.965193 
L 152.181621 248.191953 
L 153.227203 243.526077 
L 153.96074 239.379639 
L 154.694322 233.941068 
L 155.822514 224.199315 
L 157.922568 210.268726 
L 158.886911 205.26472 
L 159.646818 202.628483 
L 160.354728 198.507812 
L 161.414675 195.42454 
L 162.925181 192.673488 
L 163.658718 188.898036 
L 164.338343 187.637131 
L 165.069992 186.720535 
L 166.074683 184.41321 
L 168.628262 182.012416 
L 169.963237 181.32704 
L 170.983263 183.083391 
L 172.851198 182.073152 
L 173.884044 188.982754 
L 174.626884 188.491587 
L 175.592695 186.759314 
L 176.921476 194.175201 
L 177.899544 192.728978 
L 178.893698 212.995778 
L 179.562856 210.578806 
L 180.573935 205.303156 
L 181.594892 214.44543 
L 182.318214 212.986445 
L 183.085201 207.146386 
L 184.116948 205.456838 
L 184.868664 220.97556 
L 186.283003 217.653904 
L 186.717217 214.601445 
L 187.396739 211.915037 
L 188.42868 228.411775 
L 189.17496 225.406185 
L 190.505958 220.797734 
L 191.498644 214.904104 
L 192.722867 289.213224 
L 193.716529 287.325741 
L 194.463396 283.407024 
L 195.115901 275.479741 
L 196.121478 254.630365 
L 197.046572 243.496015 
L 198.000442 229.513509 
L 198.68019 221.878305 
L 199.319532 221.162421 
L 200.351163 212.918785 
L 201.405053 206.519671 
L 202.571007 204.649665 
L 203.622097 201.489823 
L 205.187244 201.103269 
L 206.286952 197.117079 
L 207.336161 199.052 
L 208.10168 196.86395 
L 209.134339 193.461591 
L 209.980295 196.303962 
L 212.233989 191.721735 
L 213.287478 195.059936 
L 214.400154 192.871278 
L 215.950342 194.821235 
L 216.919734 193.177165 
L 217.703497 200.443355 
L 218.983177 196.275413 
L 219.829961 198.792578 
L 220.552856 196.652025 
L 221.53236 197.288796 
L 222.320371 195.158899 
L 223.271318 195.889281 
L 224.022026 193.938956 
L 224.97247 194.441418 
L 226.576808 190.574282 
L 227.25653 192.285614 
L 228.222464 190.83617 
L 228.972486 360.441095 
L 229.92827 360.226274 
L 231.287876 357.942547 
L 231.969117 354.525886 
L 232.73035 347.282588 
L 233.766048 167.057013 
L 234.733429 154.895547 
L 236.351738 140.923366 
L 237.045393 137.546277 
L 238.446814 141.535049 
L 239.724606 324.483776 
L 240.420135 332.116552 
L 241.085893 337.804739 
L 241.793945 340.643145 
L 242.516892 340.014911 
L 243.748045 328.994268 
L 244.686684 312.525779 
L 245.364053 295.298544 
L 246.665461 116.43194 
L 248.093331 102.324326 
L 249.114243 268.516367 
L 249.780615 268.96023 
L 250.528607 266.345303 
L 251.550081 256.951222 
L 253.58235 226.962294 
L 256.710886 203.641597 
L 257.438424 200.407161 
L 258.118075 198.155229 
L 259.678179 196.654751 
L 260.683847 193.255581 
L 261.718057 190.205169 
L 262.397456 195.566758 
L 263.158696 194.114407 
L 264.096293 191.155375 
L 265.049594 196.38291 
L 266.081652 194.024101 
L 267.166037 199.516352 
L 268.101986 196.95123 
L 269.069743 194.803504 
L 269.735255 202.498162 
L 270.469852 200.808227 
L 271.859617 196.428741 
L 272.866914 207.879296 
L 274.213836 206.199248 
L 275.260013 222.616704 
L 276.006563 221.097793 
L 277.418801 215.340227 
L 278.227571 235.723176 
L 279.016138 237.131794 
L 280.0476 233.069961 
L 281.097359 327.647921 
L 281.816531 323.133647 
L 282.486885 315.999279 
L 284.791291 293.567574 
L 286.525407 269.996645 
L 287.965625 253.311046 
L 289.007942 235.92349 
L 290.016603 222.46479 
L 290.753314 221.506502 
L 292.443766 208.649509 
L 293.124232 210.092067 
L 294.933103 201.034253 
L 296.027599 203.956383 
L 297.045317 198.307441 
L 297.805904 195.80863 
L 298.81565 197.461935 
L 300.111447 194.559752 
L 301.15873 196.34251 
L 302.209044 194.490638 
L 302.954134 198.223735 
L 304.734469 193.132672 
L 306.73052 198.501839 
L 307.702835 194.222501 
L 308.981661 195.723696 
L 309.986637 197.393657 
L 311.020498 194.294788 
L 311.741784 196.337869 
L 312.420788 194.336595 
L 313.10649 195.215483 
L 314.139324 193.348196 
L 315.138746 369.106286 
L 316.111714 366.721785 
L 316.859338 365.513723 
L 317.595512 363.458083 
L 318.500681 357.840402 
L 319.73766 169.953479 
L 320.689131 152.550122 
L 321.852098 139.713087 
L 323.1567 132.892031 
L 323.890515 131.778675 
L 324.94893 313.925828 
L 325.915678 329.094716 
L 326.908901 333.0053 
L 327.92872 334.106157 
L 328.933301 323.754391 
L 330.50909 300.649761 
L 331.190648 115.537825 
L 331.924334 107.200794 
L 332.849739 99.048823 
L 333.570087 95.159998 
L 334.292459 92.906102 
L 335.28506 92.713173 
L 336.619841 271.232174 
L 337.637236 284.29245 
L 338.347091 291.388286 
L 339.059067 294.526219 
L 339.740723 293.762442 
L 340.70813 289.510963 
L 341.645521 281.350154 
L 343.784572 241.375407 
L 344.722932 233.495887 
L 346.398269 217.938835 
L 347.33694 210.022988 
L 348.333989 206.122404 
L 349.354423 198.407214 
L 350.390948 195.660199 
L 351.097551 200.318741 
L 352.82166 194.769718 
L 353.825297 199.201688 
L 355.405792 193.936932 
L 356.689138 197.793942 
L 357.818008 196.481897 
L 358.551241 204.959137 
L 359.505318 201.150742 
L 360.471937 197.869336 
L 361.153056 209.711914 
L 361.819428 208.218724 
L 362.530007 204.234451 
L 363.919941 220.068314 
L 364.618011 218.024319 
L 365.690345 213.614246 
L 366.758425 233.306761 
L 367.438361 232.262514 
L 368.39099 228.173663 
L 369.125082 225.690337 
L 370.279503 319.306877 
L 371.335248 317.280499 
L 372.106295 310.455607 
L 373.125332 303.68763 
L 374.947165 274.28932 
L 375.655501 268.037538 
L 376.692466 244.156778 
L 377.832527 233.870099 
L 378.857014 227.141414 
L 380.217959 214.994976 
L 381.268118 207.453653 
L 382.002747 209.390732 
L 383.054698 204.02459 
L 384.658784 200.744426 
L 385.367269 197.878587 
L 386.387799 199.781398 
L 388.128296 193.808839 
L 388.776993 197.392868 
L 389.785395 194.765803 
L 390.849125 191.640989 
L 391.850344 194.552284 
L 392.530564 193.020811 
L 393.532346 195.727073 
L 394.480605 193.186807 
L 395.21506 196.342588 
L 395.984089 194.550868 
L 396.917885 191.396091 
L 398.309066 192.880472 
L 399.33504 195.162821 
L 400.818367 195.777341 
L 402.039202 195.563043 
L 402.873185 193.554358 
L 403.609625 368.705444 
L 404.66881 367.786942 
L 406.06087 365.796462 
L 406.426012 364.578577 
L 407.13239 361.050129 
L 408.062055 353.292387 
L 408.768296 172.391192 
L 409.774332 155.218144 
L 410.776696 146.24353 
L 411.457815 141.457092 
L 412.829297 137.049772 
L 413.49852 141.733929 
L 414.22192 321.905723 
L 414.85834 329.289408 
L 415.552421 332.315534 
L 415.90504 336.914694 
L 416.88649 338.171944 
L 418.861149 321.256984 
L 419.852568 133.995799 
L 421.519914 108.374454 
L 422.51024 102.623182 
L 423.45129 279.940255 
L 424.078128 285.170568 
L 425.472587 289.259653 
L 426.12473 287.779373 
L 427.477651 281.242368 
L 428.865651 256.273403 
L 429.979303 239.005865 
L 430.684019 225.048481 
L 432.281569 216.594292 
L 432.729328 210.94532 
L 433.71196 204.386174 
L 435.729793 197.54147 
L 436.711275 200.709982 
L 438.509077 194.546008 
L 439.460749 199.79193 
L 441.465865 192.24567 
L 442.445052 198.206775 
L 443.341926 195.682026 
L 444.082782 204.013636 
L 444.79181 200.400522 
L 446.140289 195.511781 
L 447.170634 207.842757 
L 448.242638 206.70649 
L 449.248183 221.555224 
L 449.95491 216.359786 
L 451.334628 213.13457 
L 452.111073 210.684636 
L 452.803473 231.145425 
L 453.866007 233.087885 
L 454.898956 230.119134 
L 455.594065 327.953815 
L 458.151174 312.597449 
L 458.911819 298.800506 
L 460.311547 282.030814 
L 461.344483 258.337098 
L 462.649874 247.789218 
L 464.452118 225.620176 
L 465.193723 224.426794 
L 466.21781 215.93683 
L 467.588574 211.216943 
L 468.657463 204.594378 
L 469.463705 200.970458 
L 470.159396 203.869749 
L 471.968454 197.062387 
L 473.071594 199.157273 
L 473.881534 197.321038 
L 475.253553 197.342288 
L 476.374608 195.187137 
L 477.75569 196.64927 
L 478.571824 193.375066 
L 479.291105 192.773542 
L 480.028644 196.581253 
L 481.129547 194.083215 
L 481.962767 196.138317 
L 483.728123 192.727065 
L 484.668843 194.977321 
L 485.346781 198.060162 
L 486.053255 196.071479 
L 487.341707 195.781252 
L 488.061351 193.779132 
L 489.1067 194.789086 
L 490.158172 369.36 
L 491.177617 368.429992 
L 491.901553 367.944203 
L 492.649739 365.959471 
L 493.397325 362.569114 
L 494.184631 357.847713 
L 494.84969 177.359994 
L 496.249541 157.588675 
L 498.109091 144.302677 
L 498.109091 144.302677 
" clip-path="url(#pb73497d14e)" style="fill: none; stroke: #1f77b4; stroke-width: 2; stroke-linecap: square"/>
   </g>
   <g id="patch_3">
    <path d="M 72 384.48 
L 72 51.84 
" style="fill: none; stroke: #000000; stroke-width: 0.8; stroke-linejoin: miter; stroke-linecap: square"/>
   </g>
   <g id="patch_4">
    <path d="M 518.4 384.48 
L 518.4 51.84 
" style="fill: none; stroke: #000000; stroke-width: 0.8; stroke-linejoin: miter; stroke-linecap: square"/>
   </g>
   <g id="patch_5">
    <path d="M 72 384.48 
L 518.4 384.48 
" style="fill: none; stroke: #000000; stroke-width: 0.8; stroke-linejoin: miter; stroke-linecap: square"/>
   </g>
   <g id="patch_6">
    <path d="M 72 51.84 
L 518.4 51.84 
" style="fill: none; stroke: #000000; stroke-width: 0.8; stroke-linejoin: miter; stroke-linecap: square"/>
   </g>
   <g id="legend_1">
    <g id="patch_7">
     <path d="M 433.9 74.518125 
L 511.4 74.518125 
Q 513.4 74.518125 513.4 72.518125 
L 513.4 58.84 
Q 513.4 56.84 511.4 56.84 
L 433.9 56.84 
Q 431.9 56.84 431.9 58.84 
L 431.9 72.518125 
Q 431.9 74.518125 433.9 74.518125 
z
" style="fill: #ffffff; opacity: 0.8; stroke: #cccccc; stroke-linejoin: miter"/>
    </g>
    <g id="line2d_36">
     <path d="M 435.9 64.938438 
L 445.9 64.938438 
L 455.9 64.938438 
" style="fill: none; stroke: #1f77b4; stroke-width: 2; stroke-linecap: square"/>
    </g>
    <g id="text_20">
     <!-- e h (deg) -->
     <g transform="translate(463.9 68.438438) scale(0.1 -0.1)">
      <use xlink:href="#DejaVuSans-65"/>
      <use xlink:href="#DejaVuSans-20" transform="translate(61.523438 0)"/>
      <use xlink:href="#DejaVuSans-68" transform="translate(93.310547 0)"/>
      <use xlink:href="#DejaVuSans-20" transform="translate(156.689453 0)"/>
      <use xlink:href="#DejaVuSans-28" transform="translate(188.476562 0)"/>
      <use xlink:href="#DejaVuSans-64" transform="translate(227.490234 0)"/>
      <use xlink:href="#DejaVuSans-65" transform="translate(290.966797 0)"/>
      <use xlink:href="#DejaVuSans-67" transform="translate(352.490234 0)"/>
      <use xlink:href="#DejaVuSans-29" transform="translate(415.966797 0)"/>
     </g>
    </g>
   </g>
  </g>
 </g>
 <defs>
  <clipPath id="pb73497d14e">
   <rect x="72" y="51.84" width="446.4" height="332.64"/>
  </clipPath>
 </defs>
</svg>
