<?xml version="1.0" encoding="utf-8" standalone="no"?>
<!DOCTYPE svg PUBLIC "-//W3C//DTD SVG 1.1//EN"
  "http://www.w3.org/Graphics/SVG/1.1/DTD/svg11.dtd">
<svg xmlns:xlink="http://www.w3.org/1999/xlink" width="576pt" height="432pt" viewBox="0 0 576 432" xmlns="http://www.w3.org/2000/svg" version="1.1">
 <metadata>
  <rdf:RDF xmlns:dc="http://purl.org/dc/elements/1.1/" xmlns:cc="http://creativecommons.org/ns#" xmlns:rdf="http://www.w3.org/1999/02/22-rdf-syntax-ns#">
   <cc:Work>
    <dc:type rdf:resource="http://purl.org/dc/dcmitype/StillImage"/>
    <dc:date>2025-11-27T04:24:18.186646</dc:date>
    <dc:format>image/svg+xml</dc:format>
    <dc:creator>
     <cc:Agent>
      <dc:title>Matplotlib v3.10.6, https://matplotlib.org/</dc:title>
     </cc:Agent>
    </dc:creator>
   </cc:Work>
  </rdf:RDF>
 </metadata>
 <defs>
  <style type="text/css">*{stroke-linejoin: round; stroke-linecap: butt}</style>
 </defs>
 <g id="figure_1">
  <g id="patch_1">
   <path d="M 0 432 
L 576 432 
L 576 0 
L 0 0 
z
" style="fill: #ffffff"/>
  </g>
  <g id="axes_1">
   <g id="patch_2">
    <path d="M 72 384.48 
L 518.4 384.48 
L 518.4 51.84 
L 72 51.84 
z
" style="fill: #ffffff"/>
   </g>
   <g id="matplotlib.axis_1">
    <g id="xtick_1">
     <g id="line2d_1">
      <path d="M 92.290909 384.48 
L 92.290909 51.84 
" clip-path="url(#pe5bdaacce6)" style="fill: none; stroke-dasharray: 0.8,1.32; stroke-dashoffset: 0; stroke: #b0b0b0; stroke-opacity: 0.6; stroke-width: 0.8"/>
     </g>
     <g id="line2d_2">
      <defs>
       <path id="m214c84f29d" d="M 0 0 
L 0 3.5 
" style="stroke: #000000; stroke-width: 0.8"/>
      </defs>
      <g>
       <use xlink:href="#m214c84f29d" x="92.290909" y="384.48" style="stroke: #000000; stroke-width: 0.8"/>
      </g>
     </g>
     <g id="text_1">
      <!-- 0 -->
      <g transform="translate(89.109659 399.078438) scale(0.1 -0.1)">
       <defs>
        <path id="DejaVuSans-30" d="M 2034 4250 
Q 1547 4250 1301 3770 
Q 1056 3291 1056 2328 
Q 1056 1369 1301 889 
Q 1547 409 2034 409 
Q 2525 409 2770 889 
Q 3016 1369 3016 2328 
Q 3016 3291 2770 3770 
Q 2525 4250 2034 4250 
z
M 2034 4750 
Q 2819 4750 3233 4129 
Q 3647 3509 3647 2328 
Q 3647 1150 3233 529 
Q 2819 -91 2034 -91 
Q 1250 -91 836 529 
Q 422 1150 422 2328 
Q 422 3509 836 4129 
Q 1250 4750 2034 4750 
z
" transform="scale(0.015625)"/>
       </defs>
       <use xlink:href="#DejaVuSans-30"/>
      </g>
     </g>
    </g>
    <g id="xtick_2">
     <g id="line2d_3">
      <path d="M 146.523148 384.48 
L 146.523148 51.84 
" clip-path="url(#pe5bdaacce6)" style="fill: none; stroke-dasharray: 0.8,1.32; stroke-dashoffset: 0; stroke: #b0b0b0; stroke-opacity: 0.6; stroke-width: 0.8"/>
     </g>
     <g id="line2d_4">
      <g>
       <use xlink:href="#m214c84f29d" x="146.523148" y="384.48" style="stroke: #000000; stroke-width: 0.8"/>
      </g>
     </g>
     <g id="text_2">
      <!-- 2 -->
      <g transform="translate(143.341898 399.078438) scale(0.1 -0.1)">
       <defs>
        <path id="DejaVuSans-32" d="M 1228 531 
L 3431 531 
L 3431 0 
L 469 0 
L 469 531 
Q 828 903 1448 1529 
Q 2069 2156 2228 2338 
Q 2531 2678 2651 2914 
Q 2772 3150 2772 3378 
Q 2772 3750 2511 3984 
Q 2250 4219 1831 4219 
Q 1534 4219 1204 4116 
Q 875 4013 500 3803 
L 500 4441 
Q 881 4594 1212 4672 
Q 1544 4750 1819 4750 
Q 2544 4750 2975 4387 
Q 3406 4025 3406 3419 
Q 3406 3131 3298 2873 
Q 3191 2616 2906 2266 
Q 2828 2175 2409 1742 
Q 1991 1309 1228 531 
z
" transform="scale(0.015625)"/>
       </defs>
       <use xlink:href="#DejaVuSans-32"/>
      </g>
     </g>
    </g>
    <g id="xtick_3">
     <g id="line2d_5">
      <path d="M 200.755386 384.48 
L 200.755386 51.84 
" clip-path="url(#pe5bdaacce6)" style="fill: none; stroke-dasharray: 0.8,1.32; stroke-dashoffset: 0; stroke: #b0b0b0; stroke-opacity: 0.6; stroke-width: 0.8"/>
     </g>
     <g id="line2d_6">
      <g>
       <use xlink:href="#m214c84f29d" x="200.755386" y="384.48" style="stroke: #000000; stroke-width: 0.8"/>
      </g>
     </g>
     <g id="text_3">
      <!-- 4 -->
      <g transform="translate(197.574136 399.078438) scale(0.1 -0.1)">
       <defs>
        <path id="DejaVuSans-34" d="M 2419 4116 
L 825 1625 
L 2419 1625 
L 2419 4116 
z
M 2253 4666 
L 3047 4666 
L 3047 1625 
L 3713 1625 
L 3713 1100 
L 3047 1100 
L 3047 0 
L 2419 0 
L 2419 1100 
L 313 1100 
L 313 1709 
L 2253 4666 
z
" transform="scale(0.015625)"/>
       </defs>
       <use xlink:href="#DejaVuSans-34"/>
      </g>
     </g>
    </g>
    <g id="xtick_4">
     <g id="line2d_7">
      <path d="M 254.987625 384.48 
L 254.987625 51.84 
" clip-path="url(#pe5bdaacce6)" style="fill: none; stroke-dasharray: 0.8,1.32; stroke-dashoffset: 0; stroke: #b0b0b0; stroke-opacity: 0.6; stroke-width: 0.8"/>
     </g>
     <g id="line2d_8">
      <g>
       <use xlink:href="#m214c84f29d" x="254.987625" y="384.48" style="stroke: #000000; stroke-width: 0.8"/>
      </g>
     </g>
     <g id="text_4">
      <!-- 6 -->
      <g transform="translate(251.806375 399.078438) scale(0.1 -0.1)">
       <defs>
        <path id="DejaVuSans-36" d="M 2113 2584 
Q 1688 2584 1439 2293 
Q 1191 2003 1191 1497 
Q 1191 994 1439 701 
Q 1688 409 2113 409 
Q 2538 409 2786 701 
Q 3034 994 3034 1497 
Q 3034 2003 2786 2293 
Q 2538 2584 2113 2584 
z
M 3366 4563 
L 3366 3988 
Q 3128 4100 2886 4159 
Q 2644 4219 2406 4219 
Q 1781 4219 1451 3797 
Q 1122 3375 1075 2522 
Q 1259 2794 1537 2939 
Q 1816 3084 2150 3084 
Q 2853 3084 3261 2657 
Q 3669 2231 3669 1497 
Q 3669 778 3244 343 
Q 2819 -91 2113 -91 
Q 1303 -91 875 529 
Q 447 1150 447 2328 
Q 447 3434 972 4092 
Q 1497 4750 2381 4750 
Q 2619 4750 2861 4703 
Q 3103 4656 3366 4563 
z
" transform="scale(0.015625)"/>
       </defs>
       <use xlink:href="#DejaVuSans-36"/>
      </g>
     </g>
    </g>
    <g id="xtick_5">
     <g id="line2d_9">
      <path d="M 309.219863 384.48 
L 309.219863 51.84 
" clip-path="url(#pe5bdaacce6)" style="fill: none; stroke-dasharray: 0.8,1.32; stroke-dashoffset: 0; stroke: #b0b0b0; stroke-opacity: 0.6; stroke-width: 0.8"/>
     </g>
     <g id="line2d_10">
      <g>
       <use xlink:href="#m214c84f29d" x="309.219863" y="384.48" style="stroke: #000000; stroke-width: 0.8"/>
      </g>
     </g>
     <g id="text_5">
      <!-- 8 -->
      <g transform="translate(306.038613 399.078438) scale(0.1 -0.1)">
       <defs>
        <path id="DejaVuSans-38" d="M 2034 2216 
Q 1584 2216 1326 1975 
Q 1069 1734 1069 1313 
Q 1069 891 1326 650 
Q 1584 409 2034 409 
Q 2484 409 2743 651 
Q 3003 894 3003 1313 
Q 3003 1734 2745 1975 
Q 2488 2216 2034 2216 
z
M 1403 2484 
Q 997 2584 770 2862 
Q 544 3141 544 3541 
Q 544 4100 942 4425 
Q 1341 4750 2034 4750 
Q 2731 4750 3128 4425 
Q 3525 4100 3525 3541 
Q 3525 3141 3298 2862 
Q 3072 2584 2669 2484 
Q 3125 2378 3379 2068 
Q 3634 1759 3634 1313 
Q 3634 634 3220 271 
Q 2806 -91 2034 -91 
Q 1263 -91 848 271 
Q 434 634 434 1313 
Q 434 1759 690 2068 
Q 947 2378 1403 2484 
z
M 1172 3481 
Q 1172 3119 1398 2916 
Q 1625 2713 2034 2713 
Q 2441 2713 2670 2916 
Q 2900 3119 2900 3481 
Q 2900 3844 2670 4047 
Q 2441 4250 2034 4250 
Q 1625 4250 1398 4047 
Q 1172 3844 1172 3481 
z
" transform="scale(0.015625)"/>
       </defs>
       <use xlink:href="#DejaVuSans-38"/>
      </g>
     </g>
    </g>
    <g id="xtick_6">
     <g id="line2d_11">
      <path d="M 363.452102 384.48 
L 363.452102 51.84 
" clip-path="url(#pe5bdaacce6)" style="fill: none; stroke-dasharray: 0.8,1.32; stroke-dashoffset: 0; stroke: #b0b0b0; stroke-opacity: 0.6; stroke-width: 0.8"/>
     </g>
     <g id="line2d_12">
      <g>
       <use xlink:href="#m214c84f29d" x="363.452102" y="384.48" style="stroke: #000000; stroke-width: 0.8"/>
      </g>
     </g>
     <g id="text_6">
      <!-- 10 -->
      <g transform="translate(357.089602 399.078438) scale(0.1 -0.1)">
       <defs>
        <path id="DejaVuSans-31" d="M 794 531 
L 1825 531 
L 1825 4091 
L 703 3866 
L 703 4441 
L 1819 4666 
L 2450 4666 
L 2450 531 
L 3481 531 
L 3481 0 
L 794 0 
L 794 531 
z
" transform="scale(0.015625)"/>
       </defs>
       <use xlink:href="#DejaVuSans-31"/>
       <use xlink:href="#DejaVuSans-30" transform="translate(63.623047 0)"/>
      </g>
     </g>
    </g>
    <g id="xtick_7">
     <g id="line2d_13">
      <path d="M 417.68434 384.48 
L 417.68434 51.84 
" clip-path="url(#pe5bdaacce6)" style="fill: none; stroke-dasharray: 0.8,1.32; stroke-dashoffset: 0; stroke: #b0b0b0; stroke-opacity: 0.6; stroke-width: 0.8"/>
     </g>
     <g id="line2d_14">
      <g>
       <use xlink:href="#m214c84f29d" x="417.68434" y="384.48" style="stroke: #000000; stroke-width: 0.8"/>
      </g>
     </g>
     <g id="text_7">
      <!-- 12 -->
      <g transform="translate(411.32184 399.078438) scale(0.1 -0.1)">
       <use xlink:href="#DejaVuSans-31"/>
       <use xlink:href="#DejaVuSans-32" transform="translate(63.623047 0)"/>
      </g>
     </g>
    </g>
    <g id="xtick_8">
     <g id="line2d_15">
      <path d="M 471.916579 384.48 
L 471.916579 51.84 
" clip-path="url(#pe5bdaacce6)" style="fill: none; stroke-dasharray: 0.8,1.32; stroke-dashoffset: 0; stroke: #b0b0b0; stroke-opacity: 0.6; stroke-width: 0.8"/>
     </g>
     <g id="line2d_16">
      <g>
       <use xlink:href="#m214c84f29d" x="471.916579" y="384.48" style="stroke: #000000; stroke-width: 0.8"/>
      </g>
     </g>
     <g id="text_8">
      <!-- 14 -->
      <g transform="translate(465.554079 399.078438) scale(0.1 -0.1)">
       <use xlink:href="#DejaVuSans-31"/>
       <use xlink:href="#DejaVuSans-34" transform="translate(63.623047 0)"/>
      </g>
     </g>
    </g>
    <g id="text_9">
     <!-- t (sec) -->
     <g transform="translate(276.1425 414.27625) scale(0.12 -0.12)">
      <defs>
       <path id="DejaVuSans-74" d="M 1172 4494 
L 1172 3500 
L 2356 3500 
L 2356 3053 
L 1172 3053 
L 1172 1153 
Q 1172 725 1289 603 
Q 1406 481 1766 481 
L 2356 481 
L 2356 0 
L 1766 0 
Q 1100 0 847 248 
Q 594 497 594 1153 
L 594 3053 
L 172 3053 
L 172 3500 
L 594 3500 
L 594 4494 
L 1172 4494 
z
" transform="scale(0.015625)"/>
       <path id="DejaVuSans-20" transform="scale(0.015625)"/>
       <path id="DejaVuSans-28" d="M 1984 4856 
Q 1566 4138 1362 3434 
Q 1159 2731 1159 2009 
Q 1159 1288 1364 580 
Q 1569 -128 1984 -844 
L 1484 -844 
Q 1016 -109 783 600 
Q 550 1309 550 2009 
Q 550 2706 781 3412 
Q 1013 4119 1484 4856 
L 1984 4856 
z
" transform="scale(0.015625)"/>
       <path id="DejaVuSans-73" d="M 2834 3397 
L 2834 2853 
Q 2591 2978 2328 3040 
Q 2066 3103 1784 3103 
Q 1356 3103 1142 2972 
Q 928 2841 928 2578 
Q 928 2378 1081 2264 
Q 1234 2150 1697 2047 
L 1894 2003 
Q 2506 1872 2764 1633 
Q 3022 1394 3022 966 
Q 3022 478 2636 193 
Q 2250 -91 1575 -91 
Q 1294 -91 989 -36 
Q 684 19 347 128 
L 347 722 
Q 666 556 975 473 
Q 1284 391 1588 391 
Q 1994 391 2212 530 
Q 2431 669 2431 922 
Q 2431 1156 2273 1281 
Q 2116 1406 1581 1522 
L 1381 1569 
Q 847 1681 609 1914 
Q 372 2147 372 2553 
Q 372 3047 722 3315 
Q 1072 3584 1716 3584 
Q 2034 3584 2315 3537 
Q 2597 3491 2834 3397 
z
" transform="scale(0.015625)"/>
       <path id="DejaVuSans-65" d="M 3597 1894 
L 3597 1613 
L 953 1613 
Q 991 1019 1311 708 
Q 1631 397 2203 397 
Q 2534 397 2845 478 
Q 3156 559 3463 722 
L 3463 178 
Q 3153 47 2828 -22 
Q 2503 -91 2169 -91 
Q 1331 -91 842 396 
Q 353 884 353 1716 
Q 353 2575 817 3079 
Q 1281 3584 2069 3584 
Q 2775 3584 3186 3129 
Q 3597 2675 3597 1894 
z
M 3022 2063 
Q 3016 2534 2758 2815 
Q 2500 3097 2075 3097 
Q 1594 3097 1305 2825 
Q 1016 2553 972 2059 
L 3022 2063 
z
" transform="scale(0.015625)"/>
       <path id="DejaVuSans-63" d="M 3122 3366 
L 3122 2828 
Q 2878 2963 2633 3030 
Q 2388 3097 2138 3097 
Q 1578 3097 1268 2742 
Q 959 2388 959 1747 
Q 959 1106 1268 751 
Q 1578 397 2138 397 
Q 2388 397 2633 464 
Q 2878 531 3122 666 
L 3122 134 
Q 2881 22 2623 -34 
Q 2366 -91 2075 -91 
Q 1284 -91 818 406 
Q 353 903 353 1747 
Q 353 2603 823 3093 
Q 1294 3584 2113 3584 
Q 2378 3584 2631 3529 
Q 2884 3475 3122 3366 
z
" transform="scale(0.015625)"/>
       <path id="DejaVuSans-29" d="M 513 4856 
L 1013 4856 
Q 1481 4119 1714 3412 
Q 1947 2706 1947 2009 
Q 1947 1309 1714 600 
Q 1481 -109 1013 -844 
L 513 -844 
Q 928 -128 1133 580 
Q 1338 1288 1338 2009 
Q 1338 2731 1133 3434 
Q 928 4138 513 4856 
z
" transform="scale(0.015625)"/>
      </defs>
      <use xlink:href="#DejaVuSans-74"/>
      <use xlink:href="#DejaVuSans-20" transform="translate(39.208984 0)"/>
      <use xlink:href="#DejaVuSans-28" transform="translate(70.996094 0)"/>
      <use xlink:href="#DejaVuSans-73" transform="translate(110.009766 0)"/>
      <use xlink:href="#DejaVuSans-65" transform="translate(162.109375 0)"/>
      <use xlink:href="#DejaVuSans-63" transform="translate(223.632812 0)"/>
      <use xlink:href="#DejaVuSans-29" transform="translate(278.613281 0)"/>
     </g>
    </g>
   </g>
   <g id="matplotlib.axis_2">
    <g id="ytick_1">
     <g id="line2d_17">
      <path d="M 72 371.859186 
L 518.4 371.859186 
" clip-path="url(#pe5bdaacce6)" style="fill: none; stroke-dasharray: 0.8,1.32; stroke-dashoffset: 0; stroke: #b0b0b0; stroke-opacity: 0.6; stroke-width: 0.8"/>
     </g>
     <g id="line2d_18">
      <defs>
       <path id="m77e0efab03" d="M 0 0 
L -3.5 0 
" style="stroke: #000000; stroke-width: 0.8"/>
      </defs>
      <g>
       <use xlink:href="#m77e0efab03" x="72" y="371.859186" style="stroke: #000000; stroke-width: 0.8"/>
      </g>
     </g>
     <g id="text_10">
      <!-- −0.75 -->
      <g transform="translate(34.354687 375.658405) scale(0.1 -0.1)">
       <defs>
        <path id="DejaVuSans-2212" d="M 678 2272 
L 4684 2272 
L 4684 1741 
L 678 1741 
L 678 2272 
z
" transform="scale(0.015625)"/>
        <path id="DejaVuSans-2e" d="M 684 794 
L 1344 794 
L 1344 0 
L 684 0 
L 684 794 
z
" transform="scale(0.015625)"/>
        <path id="DejaVuSans-37" d="M 525 4666 
L 3525 4666 
L 3525 4397 
L 1831 0 
L 1172 0 
L 2766 4134 
L 525 4134 
L 525 4666 
z
" transform="scale(0.015625)"/>
        <path id="DejaVuSans-35" d="M 691 4666 
L 3169 4666 
L 3169 4134 
L 1269 4134 
L 1269 2991 
Q 1406 3038 1543 3061 
Q 1681 3084 1819 3084 
Q 2600 3084 3056 2656 
Q 3513 2228 3513 1497 
Q 3513 744 3044 326 
Q 2575 -91 1722 -91 
Q 1428 -91 1123 -41 
Q 819 9 494 109 
L 494 744 
Q 775 591 1075 516 
Q 1375 441 1709 441 
Q 2250 441 2565 725 
Q 2881 1009 2881 1497 
Q 2881 1984 2565 2268 
Q 2250 2553 1709 2553 
Q 1456 2553 1204 2497 
Q 953 2441 691 2322 
L 691 4666 
z
" transform="scale(0.015625)"/>
       </defs>
       <use xlink:href="#DejaVuSans-2212"/>
       <use xlink:href="#DejaVuSans-30" transform="translate(83.789062 0)"/>
       <use xlink:href="#DejaVuSans-2e" transform="translate(147.412109 0)"/>
       <use xlink:href="#DejaVuSans-37" transform="translate(179.199219 0)"/>
       <use xlink:href="#DejaVuSans-35" transform="translate(242.822266 0)"/>
      </g>
     </g>
    </g>
    <g id="ytick_2">
     <g id="line2d_19">
      <path d="M 72 334.467924 
L 518.4 334.467924 
" clip-path="url(#pe5bdaacce6)" style="fill: none; stroke-dasharray: 0.8,1.32; stroke-dashoffset: 0; stroke: #b0b0b0; stroke-opacity: 0.6; stroke-width: 0.8"/>
     </g>
     <g id="line2d_20">
      <g>
       <use xlink:href="#m77e0efab03" x="72" y="334.467924" style="stroke: #000000; stroke-width: 0.8"/>
      </g>
     </g>
     <g id="text_11">
      <!-- −0.50 -->
      <g transform="translate(34.354687 338.267143) scale(0.1 -0.1)">
       <use xlink:href="#DejaVuSans-2212"/>
       <use xlink:href="#DejaVuSans-30" transform="translate(83.789062 0)"/>
       <use xlink:href="#DejaVuSans-2e" transform="translate(147.412109 0)"/>
       <use xlink:href="#DejaVuSans-35" transform="translate(179.199219 0)"/>
       <use xlink:href="#DejaVuSans-30" transform="translate(242.822266 0)"/>
      </g>
     </g>
    </g>
    <g id="ytick_3">
     <g id="line2d_21">
      <path d="M 72 297.076663 
L 518.4 297.076663 
" clip-path="url(#pe5bdaacce6)" style="fill: none; stroke-dasharray: 0.8,1.32; stroke-dashoffset: 0; stroke: #b0b0b0; stroke-opacity: 0.6; stroke-width: 0.8"/>
     </g>
     <g id="line2d_22">
      <g>
       <use xlink:href="#m77e0efab03" x="72" y="297.076663" style="stroke: #000000; stroke-width: 0.8"/>
      </g>
     </g>
     <g id="text_12">
      <!-- −0.25 -->
      <g transform="translate(34.354687 300.875882) scale(0.1 -0.1)">
       <use xlink:href="#DejaVuSans-2212"/>
       <use xlink:href="#DejaVuSans-30" transform="translate(83.789062 0)"/>
       <use xlink:href="#DejaVuSans-2e" transform="translate(147.412109 0)"/>
       <use xlink:href="#DejaVuSans-32" transform="translate(179.199219 0)"/>
       <use xlink:href="#DejaVuSans-35" transform="translate(242.822266 0)"/>
      </g>
     </g>
    </g>
    <g id="ytick_4">
     <g id="line2d_23">
      <path d="M 72 259.685402 
L 518.4 259.685402 
" clip-path="url(#pe5bdaacce6)" style="fill: none; stroke-dasharray: 0.8,1.32; stroke-dashoffset: 0; stroke: #b0b0b0; stroke-opacity: 0.6; stroke-width: 0.8"/>
     </g>
     <g id="line2d_24">
      <g>
       <use xlink:href="#m77e0efab03" x="72" y="259.685402" style="stroke: #000000; stroke-width: 0.8"/>
      </g>
     </g>
     <g id="text_13">
      <!-- 0.00 -->
      <g transform="translate(42.734375 263.48462) scale(0.1 -0.1)">
       <use xlink:href="#DejaVuSans-30"/>
       <use xlink:href="#DejaVuSans-2e" transform="translate(63.623047 0)"/>
       <use xlink:href="#DejaVuSans-30" transform="translate(95.410156 0)"/>
       <use xlink:href="#DejaVuSans-30" transform="translate(159.033203 0)"/>
      </g>
     </g>
    </g>
    <g id="ytick_5">
     <g id="line2d_25">
      <path d="M 72 222.29414 
L 518.4 222.29414 
" clip-path="url(#pe5bdaacce6)" style="fill: none; stroke-dasharray: 0.8,1.32; stroke-dashoffset: 0; stroke: #b0b0b0; stroke-opacity: 0.6; stroke-width: 0.8"/>
     </g>
     <g id="line2d_26">
      <g>
       <use xlink:href="#m77e0efab03" x="72" y="222.29414" style="stroke: #000000; stroke-width: 0.8"/>
      </g>
     </g>
     <g id="text_14">
      <!-- 0.25 -->
      <g transform="translate(42.734375 226.093359) scale(0.1 -0.1)">
       <use xlink:href="#DejaVuSans-30"/>
       <use xlink:href="#DejaVuSans-2e" transform="translate(63.623047 0)"/>
       <use xlink:href="#DejaVuSans-32" transform="translate(95.410156 0)"/>
       <use xlink:href="#DejaVuSans-35" transform="translate(159.033203 0)"/>
      </g>
     </g>
    </g>
    <g id="ytick_6">
     <g id="line2d_27">
      <path d="M 72 184.902879 
L 518.4 184.902879 
" clip-path="url(#pe5bdaacce6)" style="fill: none; stroke-dasharray: 0.8,1.32; stroke-dashoffset: 0; stroke: #b0b0b0; stroke-opacity: 0.6; stroke-width: 0.8"/>
     </g>
     <g id="line2d_28">
      <g>
       <use xlink:href="#m77e0efab03" x="72" y="184.902879" style="stroke: #000000; stroke-width: 0.8"/>
      </g>
     </g>
     <g id="text_15">
      <!-- 0.50 -->
      <g transform="translate(42.734375 188.702098) scale(0.1 -0.1)">
       <use xlink:href="#DejaVuSans-30"/>
       <use xlink:href="#DejaVuSans-2e" transform="translate(63.623047 0)"/>
       <use xlink:href="#DejaVuSans-35" transform="translate(95.410156 0)"/>
       <use xlink:href="#DejaVuSans-30" transform="translate(159.033203 0)"/>
      </g>
     </g>
    </g>
    <g id="ytick_7">
     <g id="line2d_29">
      <path d="M 72 147.511618 
L 518.4 147.511618 
" clip-path="url(#pe5bdaacce6)" style="fill: none; stroke-dasharray: 0.8,1.32; stroke-dashoffset: 0; stroke: #b0b0b0; stroke-opacity: 0.6; stroke-width: 0.8"/>
     </g>
     <g id="line2d_30">
      <g>
       <use xlink:href="#m77e0efab03" x="72" y="147.511618" style="stroke: #000000; stroke-width: 0.8"/>
      </g>
     </g>
     <g id="text_16">
      <!-- 0.75 -->
      <g transform="translate(42.734375 151.310836) scale(0.1 -0.1)">
       <use xlink:href="#DejaVuSans-30"/>
       <use xlink:href="#DejaVuSans-2e" transform="translate(63.623047 0)"/>
       <use xlink:href="#DejaVuSans-37" transform="translate(95.410156 0)"/>
       <use xlink:href="#DejaVuSans-35" transform="translate(159.033203 0)"/>
      </g>
     </g>
    </g>
    <g id="ytick_8">
     <g id="line2d_31">
      <path d="M 72 110.120356 
L 518.4 110.120356 
" clip-path="url(#pe5bdaacce6)" style="fill: none; stroke-dasharray: 0.8,1.32; stroke-dashoffset: 0; stroke: #b0b0b0; stroke-opacity: 0.6; stroke-width: 0.8"/>
     </g>
     <g id="line2d_32">
      <g>
       <use xlink:href="#m77e0efab03" x="72" y="110.120356" style="stroke: #000000; stroke-width: 0.8"/>
      </g>
     </g>
     <g id="text_17">
      <!-- 1.00 -->
      <g transform="translate(42.734375 113.919575) scale(0.1 -0.1)">
       <use xlink:href="#DejaVuSans-31"/>
       <use xlink:href="#DejaVuSans-2e" transform="translate(63.623047 0)"/>
       <use xlink:href="#DejaVuSans-30" transform="translate(95.410156 0)"/>
       <use xlink:href="#DejaVuSans-30" transform="translate(159.033203 0)"/>
      </g>
     </g>
    </g>
    <g id="ytick_9">
     <g id="line2d_33">
      <path d="M 72 72.729095 
L 518.4 72.729095 
" clip-path="url(#pe5bdaacce6)" style="fill: none; stroke-dasharray: 0.8,1.32; stroke-dashoffset: 0; stroke: #b0b0b0; stroke-opacity: 0.6; stroke-width: 0.8"/>
     </g>
     <g id="line2d_34">
      <g>
       <use xlink:href="#m77e0efab03" x="72" y="72.729095" style="stroke: #000000; stroke-width: 0.8"/>
      </g>
     </g>
     <g id="text_18">
      <!-- 1.25 -->
      <g transform="translate(42.734375 76.528314) scale(0.1 -0.1)">
       <use xlink:href="#DejaVuSans-31"/>
       <use xlink:href="#DejaVuSans-2e" transform="translate(63.623047 0)"/>
       <use xlink:href="#DejaVuSans-32" transform="translate(95.410156 0)"/>
       <use xlink:href="#DejaVuSans-35" transform="translate(159.033203 0)"/>
      </g>
     </g>
    </g>
    <g id="text_19">
     <!-- e d (m) -->
     <g transform="translate(27.859062 240.000937) rotate(-90) scale(0.12 -0.12)">
      <defs>
       <path id="DejaVuSans-64" d="M 2906 2969 
L 2906 4863 
L 3481 4863 
L 3481 0 
L 2906 0 
L 2906 525 
Q 2725 213 2448 61 
Q 2172 -91 1784 -91 
Q 1150 -91 751 415 
Q 353 922 353 1747 
Q 353 2572 751 3078 
Q 1150 3584 1784 3584 
Q 2172 3584 2448 3432 
Q 2725 3281 2906 2969 
z
M 947 1747 
Q 947 1113 1208 752 
Q 1469 391 1925 391 
Q 2381 391 2643 752 
Q 2906 1113 2906 1747 
Q 2906 2381 2643 2742 
Q 2381 3103 1925 3103 
Q 1469 3103 1208 2742 
Q 947 2381 947 1747 
z
" transform="scale(0.015625)"/>
       <path id="DejaVuSans-6d" d="M 3328 2828 
Q 3544 3216 3844 3400 
Q 4144 3584 4550 3584 
Q 5097 3584 5394 3201 
Q 5691 2819 5691 2113 
L 5691 0 
L 5113 0 
L 5113 2094 
Q 5113 2597 4934 2840 
Q 4756 3084 4391 3084 
Q 3944 3084 3684 2787 
Q 3425 2491 3425 1978 
L 3425 0 
L 2847 0 
L 2847 2094 
Q 2847 2600 2669 2842 
Q 2491 3084 2119 3084 
Q 1678 3084 1418 2786 
Q 1159 2488 1159 1978 
L 1159 0 
L 581 0 
L 581 3500 
L 1159 3500 
L 1159 2956 
Q 1356 3278 1631 3431 
Q 1906 3584 2284 3584 
Q 2666 3584 2933 3390 
Q 3200 3197 3328 2828 
z
" transform="scale(0.015625)"/>
      </defs>
      <use xlink:href="#DejaVuSans-65"/>
      <use xlink:href="#DejaVuSans-20" transform="translate(61.523438 0)"/>
      <use xlink:href="#DejaVuSans-64" transform="translate(93.310547 0)"/>
      <use xlink:href="#DejaVuSans-20" transform="translate(156.787109 0)"/>
      <use xlink:href="#DejaVuSans-28" transform="translate(188.574219 0)"/>
      <use xlink:href="#DejaVuSans-6d" transform="translate(227.587891 0)"/>
      <use xlink:href="#DejaVuSans-29" transform="translate(325 0)"/>
     </g>
    </g>
   </g>
   <g id="line2d_35">
    <path d="M 92.290909 66.972898 
L 94.247731 66.96 
L 96.463838 69.287043 
L 97.266744 70.807075 
L 98.313859 73.323067 
L 99.850424 76.396752 
L 100.898341 79.90845 
L 101.905618 82.401001 
L 102.646079 70.894708 
L 103.382408 75.534977 
L 104.417071 78.736476 
L 106.116121 86.491052 
L 107.896766 91.633247 
L 108.616953 81.049381 
L 109.364577 83.956771 
L 110.406009 72.561232 
L 112.307038 79.946686 
L 113.284402 68.588915 
L 116.582799 84.298207 
L 117.523041 73.306877 
L 120.249629 87.213194 
L 120.901895 74.924453 
L 123.180719 88.133263 
L 124.144254 78.162957 
L 125.451752 86.263804 
L 126.793282 92.219043 
L 127.427129 96.380423 
L 128.135226 87.117635 
L 130.173798 99.963408 
L 130.881539 88.684314 
L 131.886198 93.027796 
L 132.6482 99.692798 
L 133.367488 104.114765 
L 134.034752 211.735657 
L 134.761094 214.465706 
L 136.06717 203.778826 
L 137.520065 183.587102 
L 138.16778 176.106521 
L 139.069134 169.851279 
L 139.803583 162.133026 
L 140.483389 158.250596 
L 141.130398 155.481704 
L 142.105118 152.682211 
L 143.057559 137.180691 
L 143.708124 136.874816 
L 144.348979 137.344188 
L 145.238025 237.602383 
L 145.899981 246.625053 
L 146.837404 252.217092 
L 147.901321 235.436007 
L 149.191713 202.550338 
L 150.084011 185.821817 
L 151.148458 198.235002 
L 152.181621 142.010955 
L 153.227203 138.833093 
L 153.96074 135.933535 
L 154.694322 132.299777 
L 155.822514 113.640713 
L 156.538349 112.673466 
L 157.244585 112.986102 
L 157.922568 98.325603 
L 158.886911 100.90077 
L 159.646818 103.497688 
L 160.354728 90.567332 
L 161.414675 95.607248 
L 162.925181 101.094178 
L 163.658718 91.119469 
L 165.069992 99.485005 
L 166.074683 90.056183 
L 167.49815 98.840643 
L 168.628262 89.552157 
L 169.963237 100.669058 
L 170.983263 87.683501 
L 172.042221 96.54319 
L 172.851198 100.969041 
L 173.884044 102.292748 
L 174.626884 106.605204 
L 175.592695 112.879777 
L 177.899544 133.106534 
L 178.893698 155.795539 
L 180.573935 161.951203 
L 181.594892 171.169129 
L 182.318214 175.919276 
L 183.085201 177.506432 
L 184.116948 182.691182 
L 184.868664 189.911642 
L 185.577136 192.566315 
L 186.283003 193.675284 
L 186.717217 196.043748 
L 188.42868 203.214667 
L 189.17496 206.525179 
L 190.505958 209.56461 
L 191.498644 212.930602 
L 193.716529 206.312198 
L 194.463396 199.946816 
L 195.115901 187.190236 
L 196.121478 148.677009 
L 198.000442 122.345846 
L 198.68019 117.958831 
L 199.319532 109.28631 
L 200.351163 105.951084 
L 201.405053 109.058149 
L 202.571007 103.821392 
L 203.622097 106.200043 
L 205.187244 102.10198 
L 206.286952 106.582756 
L 207.336161 101.529641 
L 208.10168 104.817928 
L 209.134339 110.036888 
L 209.980295 105.018487 
L 211.392804 108.305202 
L 212.233989 114.275919 
L 213.287478 109.10882 
L 214.400154 114.871215 
L 215.950342 111.199479 
L 216.919734 114.977333 
L 217.703497 97.877394 
L 218.983177 102.389747 
L 219.829961 96.262392 
L 220.552856 99.559436 
L 221.53236 92.42826 
L 222.320371 95.81456 
L 223.271318 88.486906 
L 224.022026 92.018937 
L 224.97247 84.387152 
L 226.576808 89.61352 
L 227.25653 82.107446 
L 228.222464 86.003589 
L 228.972486 351.652208 
L 229.92827 352.524753 
L 231.287876 348.035067 
L 231.969117 341.034586 
L 232.73035 326.040104 
L 233.766048 75.169668 
L 234.733429 91.298278 
L 235.41299 92.98089 
L 237.045393 104.175813 
L 237.725367 91.337886 
L 238.446814 92.430158 
L 239.724606 276.753748 
L 240.420135 293.371882 
L 241.085893 305.606218 
L 241.793945 311.635471 
L 242.516892 310.288966 
L 243.748045 286.586582 
L 244.686684 250.465174 
L 245.364053 212.640555 
L 246.665461 121.970837 
L 249.114243 157.088805 
L 249.780615 158.314535 
L 250.528607 153.772931 
L 251.550081 137.972078 
L 252.589748 116.128853 
L 253.58235 100.751455 
L 254.370251 83.616703 
L 255.088685 81.293654 
L 256.710886 80.063759 
L 257.438424 82.265977 
L 258.118075 72.256501 
L 259.678179 68.171352 
L 263.158696 85.256336 
L 264.096293 90.757195 
L 265.049594 106.031464 
L 266.081652 111.562118 
L 267.166037 128.304903 
L 268.101986 133.688498 
L 269.069743 137.280676 
L 269.735255 153.693637 
L 271.859617 164.308153 
L 272.866914 181.283703 
L 274.213836 186.613669 
L 275.260013 199.719832 
L 277.418801 207.220779 
L 278.227571 212.890569 
L 279.016138 217.189341 
L 280.0476 219.457135 
L 281.097359 280.361073 
L 281.816531 271.916342 
L 282.486885 258.334039 
L 284.791291 215.549812 
L 286.525407 173.970983 
L 289.007942 121.788659 
L 290.753314 103.523895 
L 291.434427 102.203409 
L 292.443766 101.935503 
L 293.124232 95.845861 
L 294.197601 98.104287 
L 294.933103 100.243838 
L 296.027599 94.680105 
L 297.045317 97.978585 
L 297.805904 103.202063 
L 298.81565 100.73236 
L 300.111447 106.011368 
L 301.15873 103.279106 
L 302.209044 106.873867 
L 302.954134 100.420925 
L 304.734469 109.139799 
L 306.73052 98.612351 
L 307.702835 105.390721 
L 308.981661 99.129428 
L 309.986637 92.787608 
L 311.020498 97.939413 
L 311.741784 89.279287 
L 312.420788 92.74579 
L 313.10649 85.538881 
L 314.139324 89.136378 
L 315.138746 369.36 
L 316.111714 366.304257 
L 316.859338 364.963092 
L 317.595512 360.820453 
L 318.500681 349.324563 
L 319.73766 80.105012 
L 320.689131 95.779146 
L 321.852098 102.654268 
L 323.1567 111.303487 
L 323.890515 114.322515 
L 324.94893 253.449099 
L 325.915678 287.287732 
L 326.908901 295.932448 
L 327.92872 298.348596 
L 328.933301 275.450572 
L 330.50909 223.605831 
L 331.190648 124.303321 
L 332.849739 148.781965 
L 333.570087 155.411841 
L 334.292459 159.429711 
L 336.619841 161.113904 
L 337.637236 188.853846 
L 338.347091 204.229915 
L 339.059067 211.085268 
L 339.740723 209.480812 
L 340.70813 200.519447 
L 341.645521 183.778655 
L 342.765858 142.729273 
L 343.784572 115.61977 
L 344.722932 108.199039 
L 345.675807 88.723884 
L 346.398269 85.035634 
L 347.33694 83.536741 
L 348.333989 72.9413 
L 349.354423 74.375684 
L 350.390948 79.336502 
L 351.097551 82.148861 
L 352.82166 90.143049 
L 353.825297 104.95879 
L 355.405792 113.503401 
L 356.689138 131.256427 
L 357.818008 137.111201 
L 358.551241 151.462492 
L 359.505318 154.150723 
L 360.471937 161.359386 
L 361.153056 174.425833 
L 361.819428 177.757313 
L 362.530007 182.338601 
L 363.919941 193.401228 
L 364.618011 197.761747 
L 365.690345 201.546564 
L 366.758425 210.323065 
L 367.438361 212.621955 
L 369.125082 217.368885 
L 370.279503 264.61076 
L 371.335248 260.777856 
L 372.106295 247.77884 
L 373.125332 234.881248 
L 374.130534 203.190225 
L 374.947165 181.485986 
L 375.655501 165.75906 
L 376.692466 130.327243 
L 377.832527 120.114447 
L 378.857014 106.669994 
L 379.548729 103.188928 
L 380.217959 101.660007 
L 381.268118 99.945682 
L 382.002747 95.655662 
L 383.054698 98.116592 
L 384.658784 94.976014 
L 385.367269 97.787181 
L 386.387799 93.229236 
L 388.128296 101.333353 
L 388.776993 94.908625 
L 390.849125 105.749823 
L 391.850344 100.75087 
L 392.530564 104.550949 
L 393.532346 99.293579 
L 394.480605 104.847575 
L 395.21506 97.313665 
L 395.984089 100.912957 
L 396.917885 104.257398 
L 398.309066 102.117942 
L 399.33504 95.807594 
L 400.818367 90.838987 
L 402.039202 85.313764 
L 402.873185 88.833551 
L 403.609625 368.285521 
L 404.66881 368.608025 
L 406.06087 365.27965 
L 406.426012 362.817164 
L 407.13239 355.670135 
L 408.062055 339.686873 
L 408.768296 77.733028 
L 409.774332 92.402267 
L 410.776696 95.496884 
L 411.457815 99.904524 
L 412.829297 106.504657 
L 413.49852 93.367009 
L 414.22192 271.308226 
L 414.85834 287.720579 
L 415.552421 294.402005 
L 415.90504 304.45569 
L 416.88649 307.16167 
L 417.579414 294.80894 
L 418.861149 269.858481 
L 419.852568 102.329175 
L 420.548336 113.644886 
L 421.519914 134.585972 
L 422.51024 144.590386 
L 423.45129 179.215964 
L 424.078128 190.581629 
L 425.472587 199.694098 
L 426.12473 196.79614 
L 427.477651 183.452822 
L 428.865651 137.605902 
L 430.684019 98.833909 
L 432.281569 82.752868 
L 432.729328 81.373067 
L 433.71196 82.53572 
L 434.993896 72.351139 
L 435.729793 77.321016 
L 438.509077 89.529953 
L 439.460749 102.819824 
L 440.457702 109.622689 
L 441.465865 114.878342 
L 442.445052 131.356882 
L 443.341926 136.895582 
L 444.082782 151.377737 
L 444.79181 154.21185 
L 446.140289 161.10619 
L 447.170634 178.233611 
L 448.242638 181.78186 
L 449.248183 194.900291 
L 449.95491 196.346951 
L 452.111073 205.20423 
L 452.803473 211.837322 
L 453.866007 216.673453 
L 454.898956 219.711429 
L 455.594065 280.83029 
L 457.0985 265.588129 
L 458.151174 251.850691 
L 458.911819 225.65405 
L 460.311547 194.608088 
L 461.344483 155.903006 
L 463.458107 124.505229 
L 465.193723 106.62251 
L 466.21781 103.779551 
L 467.588574 96.686194 
L 468.657463 98.068949 
L 469.463705 100.14679 
L 470.159396 94.552212 
L 471.968454 101.528634 
L 473.071594 95.131108 
L 473.881534 100.563741 
L 475.253553 99.338683 
L 476.374608 102.742528 
L 477.75569 99.67466 
L 478.571824 102.799136 
L 479.291105 106.877102 
L 480.028644 99.982961 
L 481.129547 105.491859 
L 481.962767 97.721887 
L 483.361487 103.117711 
L 483.728123 107.20105 
L 485.346781 93.283839 
L 486.053255 96.678166 
L 487.341707 91.386521 
L 488.061351 94.91899 
L 489.1067 87.736423 
L 490.158172 368.350916 
L 491.177617 368.789236 
L 491.901553 368.556014 
L 492.649739 364.639252 
L 493.397325 357.919913 
L 494.184631 348.412259 
L 494.84969 77.013481 
L 496.249541 90.005129 
L 497.00983 91.786595 
L 498.109091 98.850042 
L 498.109091 98.850042 
" clip-path="url(#pe5bdaacce6)" style="fill: none; stroke: #1f77b4; stroke-width: 2; stroke-linecap: square"/>
   </g>
   <g id="patch_3">
    <path d="M 72 384.48 
L 72 51.84 
" style="fill: none; stroke: #000000; stroke-width: 0.8; stroke-linejoin: miter; stroke-linecap: square"/>
   </g>
   <g id="patch_4">
    <path d="M 518.4 384.48 
L 518.4 51.84 
" style="fill: none; stroke: #000000; stroke-width: 0.8; stroke-linejoin: miter; stroke-linecap: square"/>
   </g>
   <g id="patch_5">
    <path d="M 72 384.48 
L 518.4 384.48 
" style="fill: none; stroke: #000000; stroke-width: 0.8; stroke-linejoin: miter; stroke-linecap: square"/>
   </g>
   <g id="patch_6">
    <path d="M 72 51.84 
L 518.4 51.84 
" style="fill: none; stroke: #000000; stroke-width: 0.8; stroke-linejoin: miter; stroke-linecap: square"/>
   </g>
   <g id="legend_1">
    <g id="patch_7">
     <path d="M 463.720312 74.518125 
L 511.4 74.518125 
Q 513.4 74.518125 513.4 72.518125 
L 513.4 58.84 
Q 513.4 56.84 511.4 56.84 
L 463.720312 56.84 
Q 461.720312 56.84 461.720312 58.84 
L 461.720312 72.518125 
Q 461.720312 74.518125 463.720312 74.518125 
z
" style="fill: #ffffff; opacity: 0.8; stroke: #cccccc; stroke-linejoin: miter"/>
    </g>
    <g id="line2d_36">
     <path d="M 465.720312 64.938438 
L 475.720312 64.938438 
L 485.720312 64.938438 
" style="fill: none; stroke: #1f77b4; stroke-width: 2; stroke-linecap: square"/>
    </g>
    <g id="text_20">
     <!-- e d -->
     <g transform="translate(493.720312 68.438438) scale(0.1 -0.1)">
      <use xlink:href="#DejaVuSans-65"/>
      <use xlink:href="#DejaVuSans-20" transform="translate(61.523438 0)"/>
      <use xlink:href="#DejaVuSans-64" transform="translate(93.310547 0)"/>
     </g>
    </g>
   </g>
  </g>
 </g>
 <defs>
  <clipPath id="pe5bdaacce6">
   <rect x="72" y="51.84" width="446.4" height="332.64"/>
  </clipPath>
 </defs>
</svg>
